<?xml version="1.0" encoding="utf-8"?>
<!-- Generator: Adobe Illustrator 23.0.1, SVG Export Plug-In . SVG Version: 6.00 Build 0)  -->
<svg version="1.1" xmlns="http://www.w3.org/2000/svg" xmlns:xlink="http://www.w3.org/1999/xlink" x="0px" y="0px"
	 viewBox="0 0 3710 3710" style="enable-background:new 0 0 3710 3710;" xml:space="preserve">
<style type="text/css">
	.st0{fill:#FFFFFF;}
	.st1{fill:#F4F7FA;}
	.st2{fill:url(#SVGID_1_);}
	.st3{opacity:0.8;clip-path:url(#SVGID_3_);}
	.st4{fill:#FCFDFE;}
	.st5{clip-path:url(#SVGID_7_);fill:url(#SVGID_8_);}
	.st6{opacity:0.8;clip-path:url(#SVGID_7_);}
	.st7{fill:#97A6B7;}
	.st8{fill:#D8DEE8;}
	.st9{fill:url(#SVGID_11_);}
	.st10{opacity:0.3;fill:#97A6B7;}
	.st11{fill:url(#SVGID_12_);}
	.st12{fill:url(#SVGID_13_);}
	.st13{fill:url(#SVGID_14_);}
	.st14{fill:#FCB048;}
	.st15{fill:url(#SVGID_15_);}
	.st16{fill:url(#SVGID_16_);}
	.st17{fill:url(#SVGID_17_);}
	.st18{fill:url(#SVGID_18_);}
	.st19{fill:url(#SVGID_19_);}
	.st20{fill:url(#SVGID_20_);}
	.st21{fill:url(#SVGID_21_);}
	.st22{fill:url(#SVGID_22_);}
	.st23{fill:url(#SVGID_23_);}
	.st24{fill:url(#SVGID_24_);}
	.st25{fill:url(#SVGID_25_);}
	.st26{fill:url(#SVGID_26_);}
	.st27{fill:url(#SVGID_27_);}
	.st28{fill:url(#SVGID_28_);}
	.st29{fill:url(#SVGID_29_);}
	.st30{fill:url(#SVGID_30_);}
	.st31{fill:url(#SVGID_31_);}
	.st32{fill:url(#SVGID_32_);}
	.st33{fill:url(#SVGID_33_);}
	.st34{fill:url(#SVGID_34_);}
	.st35{fill:url(#SVGID_35_);}
	.st36{fill:url(#SVGID_36_);}
	.st37{fill:url(#SVGID_37_);}
	.st38{fill:url(#SVGID_38_);}
	.st39{fill:url(#SVGID_39_);}
	.st40{fill:url(#SVGID_40_);}
	.st41{fill:url(#SVGID_41_);}
	.st42{fill:url(#SVGID_42_);}
	.st43{fill:url(#SVGID_43_);}
	.st44{fill:url(#SVGID_44_);}
	.st45{fill:url(#SVGID_45_);}
	.st46{fill:url(#SVGID_46_);}
	.st47{fill:url(#SVGID_47_);}
	.st48{fill:url(#SVGID_48_);}
	.st49{fill:url(#SVGID_49_);}
	.st50{opacity:0.3;}
	.st51{fill:url(#SVGID_50_);}
	.st52{fill:url(#SVGID_51_);}
	.st53{opacity:0.3;fill:#FFFFFF;}
	.st54{fill:url(#SVGID_52_);}
	.st55{fill:url(#SVGID_53_);}
	.st56{fill:url(#SVGID_54_);}
	.st57{fill:url(#SVGID_55_);}
	.st58{fill:url(#SVGID_56_);}
	.st59{fill:url(#SVGID_57_);}
	.st60{fill:url(#SVGID_58_);}
	.st61{fill:url(#SVGID_59_);}
	.st62{fill:url(#SVGID_60_);}
	.st63{fill:url(#SVGID_61_);}
	.st64{fill:url(#SVGID_62_);}
	.st65{fill:url(#SVGID_63_);}
	.st66{fill:url(#SVGID_64_);}
	.st67{fill:url(#SVGID_65_);}
	.st68{fill:url(#SVGID_66_);}
	.st69{fill:url(#SVGID_67_);}
	.st70{fill:url(#SVGID_68_);}
	.st71{fill:url(#SVGID_69_);}
	.st72{fill:url(#SVGID_70_);}
	.st73{fill:url(#SVGID_71_);}
	.st74{fill:url(#SVGID_72_);}
	.st75{fill:url(#SVGID_73_);}
	.st76{fill:url(#SVGID_74_);}
	.st77{fill:url(#SVGID_75_);}
	.st78{fill:url(#SVGID_76_);}
	.st79{fill:url(#SVGID_77_);}
	.st80{fill:url(#SVGID_78_);}
	.st81{fill:url(#SVGID_79_);}
	.st82{fill:url(#SVGID_80_);}
	.st83{fill:url(#SVGID_81_);}
	.st84{fill:url(#SVGID_82_);}
	.st85{fill:url(#SVGID_83_);}
	.st86{fill:url(#SVGID_84_);}
	.st87{fill:url(#SVGID_85_);}
	.st88{fill:url(#SVGID_86_);}
	.st89{fill:url(#SVGID_87_);}
	.st90{fill:url(#SVGID_88_);}
	.st91{fill:url(#SVGID_89_);}
	.st92{fill:url(#SVGID_90_);}
	.st93{fill:url(#SVGID_91_);}
	.st94{fill:url(#SVGID_92_);}
	.st95{fill:url(#SVGID_93_);}
	.st96{fill:url(#SVGID_94_);}
	.st97{fill:url(#SVGID_95_);}
	.st98{fill:url(#SVGID_96_);}
	.st99{fill:url(#SVGID_97_);}
	.st100{opacity:0.3;fill:url(#SVGID_98_);}
	.st101{fill:url(#SVGID_99_);}
	.st102{fill:url(#SVGID_100_);}
	.st103{fill:url(#SVGID_101_);}
	.st104{fill:url(#SVGID_102_);}
	.st105{fill:url(#SVGID_103_);}
	.st106{fill:url(#SVGID_104_);}
	.st107{fill:url(#SVGID_105_);}
	.st108{opacity:0.3;fill:url(#SVGID_106_);}
	.st109{opacity:0.3;fill:url(#SVGID_107_);}
	.st110{fill:url(#SVGID_108_);}
	.st111{fill:url(#SVGID_109_);}
</style>
<g id="Background">
	<g>
		<g>
			<rect class="st0" width="3710" height="3710"/>
		</g>
	</g>
</g>
<g id="Illustration">
	<g>
		<path class="st1" d="M3038.08,2642.45c-577.3,738.43-1929.27,750.29-2303.53,340.11c-149.37-163.68-188.81-444.8-246.79-857.74
			c-27.91-198.78-31.91-359.01-34.27-468.95c-8.17-373.96-12.24-560.95,47.96-688.17c172.44-364.15,771.45-505.88,1158.63-512.45
			c27.02-0.47,54.29-0.29,81.78,0.54c453.36,13.51,964.94,202.23,1280.45,605.5c32.61,41.6,63.07,85.5,91.19,131.74
			C3401.48,1666.62,3353.02,2239.64,3038.08,2642.45z"/>
		<g>
			<g>
				<g>
					
						<linearGradient id="SVGID_1_" gradientUnits="userSpaceOnUse" x1="-4868.3755" y1="-4734.3833" x2="-4352.8398" y2="-1438.6288" gradientTransform="matrix(0.583 -0.8125 0.8125 0.583 7198.0249 659.3145)">
						<stop  offset="0" style="stop-color:#AA80F9"/>
						<stop  offset="0.9964" style="stop-color:#6165D7"/>
					</linearGradient>
					<path class="st2" d="M1907.86,2813.35c17.06-8.06,47.07-40.64,51.39-52.36c28.75-77.98,92.08-220.49,60.16-302.35
						c-5.45-13.98-73.43-6.6-86.59-16.8c-44.48-5.82-60.27-5.07-99.84-31.38c-116.83-77.65,9-335.15-233.59-332.86
						c-177.69,1.68-295.98,101.35-359.67-154.74c-63.68-256.09-409.98-648.24-617.93-387.95
						c-119.34,149.38,103.66,312.52,76.39,494.9c-25.91,173.3,77.14,275.73,264.73,314.02s125.15,134.57,124.96,291.36
						c-0.23,188.34,271.7,133.71,395.09,97.78C1582.33,2704.05,1854.87,2697.41,1907.86,2813.35z"/>
					<g>
						<defs>
							<path id="SVGID_2_" d="M2052.76,2424.03c-0.14,129.71,5.06,261.71,5.62,392.33c-68.35,28.4-149.44,60.14-192.89-21.13
								c-60.41-112.99-283.67-91.84-382.8-62.41c-122.69,36.43-395.2,90.54-394.84-97.66c0.31-156.67,62.62-253.09-124.95-291.34
								c-187.57-38.25-290.6-140.71-264.72-314.02c27.23-182.39-195.69-345.43-76.39-494.89
								c207.89-260.43,554.4,132.11,617.86,387.87s182.73,157.42,359.55,154.58c241.39-3.88,119.97,259.41,232.4,331.03
								C1919.74,2464.54,1965.14,2434.39,2052.76,2424.03z"/>
						</defs>
						<clipPath id="SVGID_3_">
							<use xlink:href="#SVGID_2_"  style="overflow:visible;"/>
						</clipPath>
						<g class="st3">
							<g>
								<path class="st4" d="M1989.47,2617.48c-157.44-22.27-309.12-68.43-450.81-137.2c-136.15-66.08-263.3-153.07-377.92-258.57
									c-222.49-204.8-394.19-476.08-496.53-784.51l3.33-1.1c216,650.98,710.36,1091.32,1322.42,1177.91L1989.47,2617.48z"/>
							</g>
							<g>
								<path class="st4" d="M1078.65,2713.26l-2.07-2.83c137.12-99.97,393.25-184.36,570.96-188.13l0.08,3.51
									C1470.52,2529.56,1215.28,2613.65,1078.65,2713.26z"/>
							</g>
							<g>
								<path class="st4" d="M1869.6,2599.13c-85.02-38.1-147.44-117.54-185.55-236.1c-27.8-86.52-42.26-191.54-42.96-312.15
									l3.51-0.02c0.7,120.25,15.1,224.92,42.79,311.1c37.79,117.57,99.57,196.29,183.64,233.97L1869.6,2599.13z"/>
							</g>
							<g>
								<path class="st4" d="M1130.23,2191.37c-153.61-78.56-333.73-54.61-457.78-20.68l-0.92-3.38
									c124.65-34.1,305.7-58.14,460.31,20.94L1130.23,2191.37z"/>
							</g>
							<g>
								<path class="st4" d="M877.16,1884.8c-74.04-182.57-19.87-381.86,19-484.4l3.28,1.24c-38.7,102.06-92.63,300.38-19.04,481.84
									L877.16,1884.8z"/>
							</g>
						</g>
					</g>
				</g>
			</g>
			<g>
				<g>
					<defs>
						<path id="SVGID_4_" d="M1509.24,2807.2c119.25-14.51,238.39-31.3,357.31-50.34c1.93,1.45,41.02-213.1-82.11-325.62
							c-243.49-217.97-79.48-413.6-32.7-529.52c74.87-163.46,36.5-362.13-181.02-324.92c-211.92,32.05-244.06-329.04-207.49-607.22
							c31.22-135.39-123.13-299.67-277.15-337.21c-157.24-41.59-314.15,43.54-362.23,313.42
							c-72.8,312.47,202.72,500.9,304.74,657.56c100.39,153.79-133.14,278.22,54.82,414.48c158.1,121.08,357.36,208.11,284.47,360.2
							C1293,2528.41,1310.93,2651.34,1509.24,2807.2z"/>
					</defs>
					<clipPath id="SVGID_5_">
						<use xlink:href="#SVGID_4_"  style="overflow:visible;"/>
					</clipPath>
				</g>
				<g>
					<defs>
						<path id="SVGID_6_" d="M1509.24,2807.2c119.25-14.51,238.39-31.3,357.31-50.34c1.93,1.45,41.02-213.1-82.11-325.62
							c-243.49-217.97-79.48-413.6-32.7-529.52c74.87-163.46,36.5-362.13-181.02-324.92c-211.92,32.05-244.06-329.04-207.49-607.22
							c31.22-135.39-123.13-299.67-277.15-337.21c-157.24-41.59-314.15,43.54-362.23,313.42
							c-72.8,312.47,202.72,500.9,304.74,657.56c100.39,153.79-133.14,278.22,54.82,414.48c158.1,121.08,357.36,208.11,284.47,360.2
							C1293,2528.41,1310.93,2651.34,1509.24,2807.2z"/>
					</defs>
					<clipPath id="SVGID_7_">
						<use xlink:href="#SVGID_6_"  style="overflow:visible;"/>
					</clipPath>
					
						<linearGradient id="SVGID_8_" gradientUnits="userSpaceOnUse" x1="-972.5406" y1="-2219.8501" x2="-1690.0798" y2="-180.5264" gradientTransform="matrix(0.8674 -0.4976 0.4976 0.8674 3060.8926 2110.0093)">
						<stop  offset="0" style="stop-color:#FF9085"/>
						<stop  offset="1" style="stop-color:#FB6FBB"/>
					</linearGradient>
					<path class="st5" d="M1509.24,2807.2c119.25-14.51,238.39-31.3,357.31-50.34c1.93,1.45,41.02-213.1-82.11-325.62
						c-243.49-217.97-79.48-413.6-32.7-529.52c74.12-163.34,35.14-340.21-165.72-342.83c-222.77-6.51-263.16-311.7-222.79-589.31
						c31.22-135.39-123.13-299.67-277.15-337.21c-157.24-41.59-314.15,43.54-362.23,313.42c-72.8,312.47,202.72,500.9,304.74,657.56
						c100.39,153.79-133.14,278.22,54.82,414.48c158.1,121.08,357.36,208.11,284.47,360.2
						C1293,2528.41,1310.93,2651.34,1509.24,2807.2z"/>
					<g class="st6">
						<g>
							<path class="st4" d="M1668.94,2819.93c-1.47-13.89-121.71-470.03-310.15-891.28c-27.19-71.27-56.67-142.99-85.18-212.35
								c-76.4-185.92-155.42-378.17-192.97-569.76c-42.03-214.41-27.04-407.56,45.83-590.48l4.18,1.14
								c-161.8,406.2-11.75,771.35,147.13,1157.93c28.51,69.38,58,141.12,85.17,212.34c196.57,439.42,310.42,890.51,310.38,892.41
								l-4.41-0.06l2.2,0.03L1668.94,2819.93z"/>
						</g>
						<g>
							<path class="st4" d="M1135.57,1355.92c-133.07-122.37-293.55-296.2-379.77-389.58c-36.85-39.92-65.96-71.45-69.41-73.36
								l0.95-1.18l-0.43-2.26c2.95-0.35,5.76,2.42,72.38,74.58c86.18,93.34,246.59,267.1,379.55,389.36L1135.57,1355.92z"/>
						</g>
						<g>
							<path class="st4" d="M1093.82,1193.22l-3.15-5.48c21.04-107.18,70.57-203.34,143.23-278.09
								c57.68-59.34,112.64-87.78,127.34-93.07c3.15-1.13,4.51-1.29,5.66-0.66l-2.45,3.03c0.54,0.3,0.99,0.26,1,0.26
								c-5.5,0.48-59.77,25.5-119.36,83.94C1192.37,955.83,1121.35,1052.96,1093.82,1193.22z"/>
						</g>
						<g>
							<path class="st4" d="M1475.45,2214.66c-18.86-131.13,18-272.1,109.57-418.98c47.69-76.49,108.5-151.43,180.74-222.71
								c3.78-3.73,6.77-6.68,7.18-7.27l3.81,1.83c-0.58,0.83-2.63,2.86-7.61,7.78c-100.37,99.05-329.49,359.58-289.31,638.92
								L1475.45,2214.66z"/>
						</g>
						<g>
							<path class="st4" d="M1421.68,2077.34c-141.18-188.78-437.19-202.09-442.23-202.09c-0.02,0-0.03,0-0.05,0l-0.19-1.81
								l-0.7,1.73l-1.52-1.79l1.64-1.71c2.55-0.58,303.83,12.58,446.79,203.75L1421.68,2077.34z"/>
						</g>
						<g>
							<path class="st4" d="M1649.03,2746.31c-2.55-57.39,22.11-155.09,154.07-294.6c3.1-3.27,5.78-6.1,6.14-6.67l1.62,0.71
								l2.59-0.31c0.18,1.05,0.18,1.05-6.88,8.51c-131.13,138.64-155.65,235.43-153.13,292.22L1649.03,2746.31z"/>
						</g>
						<g>
							<path class="st4" d="M1618.75,2639.35c-34.69-99.05-203.21-172.06-300.59-206.76c-3.32-1.18-5.45-1.95-6.21-2.27l2.01-3.25
								c0.73,0.31,2.77,1.03,5.94,2.17c98.08,34.96,267.89,108.6,303.08,209.09L1618.75,2639.35z"/>
						</g>
					</g>
				</g>
				<g>
					<defs>
						<path id="SVGID_9_" d="M1509.24,2807.2c119.25-14.51,238.39-31.3,357.31-50.34c1.93,1.45,41.02-213.1-82.11-325.62
							c-243.49-217.97-79.48-413.6-32.7-529.52c74.87-163.46,36.5-362.13-181.02-324.92c-211.92,32.05-244.06-329.04-207.49-607.22
							c31.22-135.39-123.13-299.67-277.15-337.21c-157.24-41.59-314.15,43.54-362.23,313.42
							c-72.8,312.47,202.72,500.9,304.74,657.56c100.39,153.79-133.14,278.22,54.82,414.48c158.1,121.08,357.36,208.11,284.47,360.2
							C1293,2528.41,1310.93,2651.34,1509.24,2807.2z"/>
					</defs>
					<clipPath id="SVGID_10_">
						<use xlink:href="#SVGID_9_"  style="overflow:visible;"/>
					</clipPath>
				</g>
			</g>
		</g>
		<g>
			<path class="st7" d="M2786.12,3063.06c0,27.14-20.61,50.21-46.09,51.53l-1619.44,84.12c-29.73,1.54-53.89-21.04-53.89-50.46
				V745.61c0-29.41,24.16-51.78,53.89-49.97l21.69-1.16l1597.75,99.96c25.48,1.55,46.09,24.81,46.09,51.95V3063.06z"/>
			<path class="st8" d="M2818.03,3061.95c0,27.14-20.61,50.21-46.09,51.53L1152.5,3197.6c-29.73,1.54-53.89-21.04-53.89-50.46V744.5
				c0-29.41,24.16-51.78,53.89-49.97l1619.44,98.8c25.48,1.55,46.09,24.81,46.09,51.95V3061.95z"/>
			<path class="st8" d="M1572.63,920.41c-40.25,51.75-46,149.51,23,189.76c149.51,92,345.02,63.25,488.77-34.5
				c105.8-74.06,60.75-211.37,30.47-322.43l-318.5-19.43C1768.96,810.41,1623.11,853.11,1572.63,920.41z"/>
			<path class="st0" d="M2741.86,2965.78c0,24.03-18.31,44.36-40.95,45.42l-1466.33,68.63c-26.03,1.22-47.17-18.74-47.17-44.58
				V978.62c0-25.84,21.15-45.72,47.17-44.41l1466.33,73.87c22.63,1.14,40.95,21.54,40.95,45.57V2965.78z"/>
			<linearGradient id="SVGID_11_" gradientUnits="userSpaceOnUse" x1="1607.6466" y1="843.8212" x2="2360.0947" y2="843.8212">
				<stop  offset="0" style="stop-color:#444B8C"/>
				<stop  offset="0.9964" style="stop-color:#26264F"/>
			</linearGradient>
			<path class="st9" d="M2339.85,942.68c-2.18-12.61-12.02-21.52-24.5-22.19l-77.17-4.14c-34.87-1.87-60.09-30.95-58.44-67.5
				l3.83-84.67c0.71-15.65-10.1-28.2-25.12-29.14l-24.91-1.55c-18.95-1.18-31.92-18.15-28.93-37.9
				c5.29-34.95-17.69-65.11-51.42-67.36c-33.84-2.26-65.66,24.39-70.98,59.55c-1.44,9.54-6.49,18.47-14.05,24.8
				c-7.56,6.34-17,9.58-26.26,9.01l-25.43-1.58c-15.38-0.96-30.13,10.18-34.21,25.85l-22.09,84.85
				c-9.55,36.68-44.17,62.97-80.47,61.02l-81.19-4.36c-13.25-0.71-26.35,7.24-32.61,19.8l-58.27,116.93l5.01,6.4l747.44,29.07
				L2339.85,942.68z M2042.17,701.04c-9.91-0.63-16.69-9.47-15.14-19.76c1.56-10.28,10.86-18.1,20.77-17.45
				c9.9,0.65,16.66,9.49,15.11,19.76C2061.36,693.85,2052.08,701.66,2042.17,701.04z"/>
			<path class="st7" d="M2344.86,949.08c-2.18-12.61-12.02-21.52-24.5-22.19l-77.17-4.15c-34.88-1.87-60.1-30.95-58.44-67.5
				l3.83-84.66c0.71-15.65-10.1-28.2-25.12-29.14l-24.91-1.55c-18.95-1.18-31.92-18.15-28.93-37.9
				c5.29-34.95-17.69-65.11-51.42-67.36c-33.84-2.26-65.66,24.39-70.98,59.55c-1.44,9.54-6.49,18.47-14.05,24.8
				c-7.56,6.34-17,9.58-26.25,9.01l-25.43-1.58c-15.38-0.96-30.13,10.18-34.21,25.85l-22.09,84.85
				c-9.55,36.68-44.17,62.97-80.46,61.02l-81.19-4.36c-13.25-0.71-26.35,7.24-32.61,19.8l-58.27,116.93l752.45,35.47L2344.86,949.08
				z M2047.18,707.44c-9.91-0.63-16.69-9.47-15.14-19.76c1.56-10.28,10.86-18.1,20.77-17.45c9.9,0.65,16.66,9.49,15.11,19.76
				C2066.36,700.25,2057.08,708.06,2047.18,707.44z"/>
			<path class="st10" d="M2320.36,926.89l-77.17-4.15c-23.16-1.24-42-14.52-51.6-33.98c-71.51,14.96-146.85-0.67-222.19,14.4
				c-51.75,11.5-46,92-103.5,97.75c-82.48,11.15-164.09,11.92-244.84,12.71l-8.4,16.85l752.45,35.47l-20.24-116.88
				C2342.67,936.47,2332.84,927.56,2320.36,926.89z"/>
			<g>
				<polygon class="st8" points="2634.26,1339.37 1322.39,1307.52 1322.39,1135.64 2634.26,1176.53 				"/>
				<g>
					<g>
						<g>
							<path class="st8" d="M2634.26,1877.73l-1311.87-1.97V1437.3l1311.87,25.03V1877.73z M1346.94,1851.28l1262.76,3.14v-369.26
								l-1262.76-22.83V1851.28z"/>
						</g>
						<g>
							<polygon class="st8" points="1627.56,1861.73 1599.5,1861.73 1599.5,1453.04 1627.56,1453.5 							"/>
						</g>
						<g>
							<g>
								<polygon class="st8" points="2620.22,1618.35 1613.53,1605.76 1613.53,1581.49 2620.22,1595.08 								"/>
							</g>
							<g>
								<polygon class="st8" points="2620.22,1744.71 1613.53,1737.5 1613.53,1713.23 2620.22,1721.44 								"/>
							</g>
						</g>
					</g>
					<g>
						<polygon class="st8" points="2364.17,1873.93 2336.1,1873.9 2336.1,1466.74 2364.17,1467.19 						"/>
					</g>
				</g>
				<g>
					<g>
						<g>
							<path class="st8" d="M2634.26,2658.7l-1311.87,41.36V2261.6l1311.87-18.31V2658.7z M1346.94,2674.72l1262.76-38.55v-369.26
								l-1262.76,18.86V2674.72z"/>
						</g>
						<g>
							<polygon class="st8" points="1627.56,2676.54 1599.5,2677.45 1599.5,2268.16 1627.56,2267.71 							"/>
						</g>
						<g>
							<g>
								<polygon class="st8" points="2620.22,2399.77 1613.53,2420.45 1613.53,2396.18 2620.22,2376.5 								"/>
							</g>
							<g>
								<polygon class="st8" points="2620.22,2526.13 1613.53,2552.19 1613.53,2527.92 2620.22,2502.85 								"/>
							</g>
						</g>
					</g>
					<g>
						<polygon class="st8" points="2364.17,2663.9 2336.1,2664.67 2336.1,2257.51 2364.17,2257.15 						"/>
					</g>
				</g>
				<polygon class="st8" points="2634.26,2017.31 1322.39,2023.08 1322.39,1966.96 2634.26,1964.14 				"/>
				<polygon class="st8" points="2634.26,2143.59 1322.39,2156.37 1322.39,2100.25 2634.26,2090.42 				"/>
				<polygon class="st8" points="2634.26,2798.27 1322.39,2847.38 1322.39,2791.26 2634.26,2745.1 				"/>
			</g>
		</g>
		<g>
			<g>
				<linearGradient id="SVGID_12_" gradientUnits="userSpaceOnUse" x1="749.8636" y1="3183.3467" x2="1687.7252" y2="3183.3467">
					<stop  offset="0" style="stop-color:#FCB148"/>
					<stop  offset="0.0521" style="stop-color:#FDBA46"/>
					<stop  offset="0.1424" style="stop-color:#FFC244"/>
					<stop  offset="0.3183" style="stop-color:#FFC444"/>
					<stop  offset="0.4849" style="stop-color:#FDB946"/>
					<stop  offset="0.7754" style="stop-color:#F99C4D"/>
					<stop  offset="0.8658" style="stop-color:#F8924F"/>
					<stop  offset="1" style="stop-color:#F8924F"/>
				</linearGradient>
				<path class="st11" d="M819.56,3111.69v90.41c0,29.21,182.49,52.9,407.61,52.9s407.61-23.68,407.61-52.9v-90.41H819.56z"/>
				<linearGradient id="SVGID_13_" gradientUnits="userSpaceOnUse" x1="1223.1045" y1="3077.7" x2="1272.5475" y2="3491.6104">
					<stop  offset="0" style="stop-color:#FFDB44"/>
					<stop  offset="1" style="stop-color:#FEEF06"/>
				</linearGradient>
				<path class="st12" d="M1634.78,3111.69c0,29.21-182.49,52.9-407.61,52.9s-407.61-23.68-407.61-52.9
					c0-29.21,182.49-52.9,407.61-52.9S1634.78,3082.48,1634.78,3111.69z"/>
				<linearGradient id="SVGID_14_" gradientUnits="userSpaceOnUse" x1="1220.9546" y1="3059.2415" x2="1236.1394" y2="3186.3604">
					<stop  offset="0" style="stop-color:#FFDB44"/>
					<stop  offset="1" style="stop-color:#FEEF06"/>
				</linearGradient>
				<path class="st13" d="M1227.16,3168.24c-199.37,0-407.85-19.04-407.85-55.77c0-2.02,0.72-5.56,2.74-5.56
					c2.02,0,1.15,2.77,1.15,4.79c0,23.29,165.9,49.24,403.96,49.24c238.06,0,403.96-25.95,403.96-49.24c0-2.02,0.34-3.91,2.36-3.91
					s1.53,2.69,1.53,4.71C1635.02,3149.22,1426.53,3168.24,1227.16,3168.24z"/>
				<g>
					<path class="st14" d="M1188.65,3114.64c4-2.77,8.26-5.5,12.81-8.19c4.51-2.69,10.39-5.13,17.51-7.3
						c7.16-2.17,16.12-3.94,26.87-5.31c10.75-1.37,24.2-2.09,40.25-2.17c15.75-0.08,30.53,0.42,44.36,1.5
						c13.79,1.07,25.97,2.69,36.48,4.83c10.47,2.14,19.02,4.8,25.61,7.95c6.55,3.16,10.45,6.78,11.71,10.85l45.9,0.46
						c3.33,0.02,6.28,0.29,8.8,0.81c2.56,0.52,3.81,1.18,3.81,1.98l0.02,3.78l-59-0.57c-2.07,4.63-7.34,8.86-15.82,12.7
						c-8.43,3.84-19.22,7.17-32.35,9.98l-21.49-2.99c-1.92-0.29-3.5-0.67-4.75-1.12c-1.24-0.45-1.84-0.94-1.84-1.48
						c0-0.73,1.66-1.55,4.98-2.49c3.33-0.93,7.08-2.09,11.25-3.47c4.18-1.37,8.27-3,12.31-4.87c4-1.87,6.68-4.11,8.08-6.71
						l-139.27-1.38c-3.66,2.69-7.79,5.34-12.3,7.94c-4.56,2.6-10.56,4.94-18.07,7.02c-7.5,2.08-16.84,3.76-28.02,5.06
						c-11.22,1.29-25.26,1.98-42.26,2.07c-12.77,0.06-25.19-0.42-37.36-1.45c-12.17-1.03-22.98-2.57-32.43-4.62
						c-9.45-2.05-17.18-4.59-23.26-7.62c-6.03-3.03-9.42-6.5-10.13-10.43l-37.78-0.39c-3.33-0.02-6.28-0.28-8.93-0.78
						c-2.61-0.51-3.93-1.17-3.94-2.01l-0.02-3.78l51.66,0.49c2.29-3.98,6.97-7.45,14.12-10.41c7.16-2.96,15.9-5.59,26.22-7.89
						l17.3,2.38c5.26,0.74,7.86,1.6,7.87,2.59c0,0.54-1.06,1.2-3.23,1.99c-2.22,0.79-4.77,1.74-7.76,2.84
						c-2.94,1.1-5.84,2.4-8.6,3.88c-2.81,1.48-4.89,3.16-6.29,5.04L1188.65,3114.64z M1061.19,3119.79
						c1.04,2.48,3.35,4.61,6.86,6.41c3.51,1.8,7.87,3.27,13.13,4.43c5.26,1.16,11.15,2.01,17.69,2.55
						c6.58,0.54,13.45,0.8,20.62,0.76c8.37-0.04,15.67-0.4,21.9-1.08c6.19-0.68,11.65-1.6,16.38-2.77
						c4.69-1.17,8.82-2.52,12.32-4.07c3.49-1.55,6.6-3.22,9.41-5.03L1061.19,3119.79z M1364.38,3116.41
						c-1.04-2.51-3.57-4.71-7.5-6.6c-3.94-1.89-8.98-3.48-15.09-4.76c-6.11-1.29-13.25-2.25-21.4-2.87
						c-8.11-0.63-17.08-0.92-26.9-0.87c-8.71,0.04-16.26,0.43-22.54,1.17c-6.27,0.74-11.73,1.72-16.38,2.97
						c-4.61,1.24-8.57,2.69-11.76,4.35c-3.24,1.66-6.26,3.43-9.03,5.31L1364.38,3116.41z"/>
				</g>
				
					<linearGradient id="SVGID_15_" gradientUnits="userSpaceOnUse" x1="434.0198" y1="954.8053" x2="449.1507" y2="1081.4735" gradientTransform="matrix(-1 0 0 -1 1669.249 4127.8389)">
					<stop  offset="3.597120e-03" style="stop-color:#F36F56"/>
					<stop  offset="0.3059" style="stop-color:#F99C4C"/>
					<stop  offset="0.545" style="stop-color:#FDB946"/>
					<stop  offset="0.6817" style="stop-color:#FFC444"/>
					<stop  offset="0.8038" style="stop-color:#FFC244"/>
					<stop  offset="0.8667" style="stop-color:#FEBA46"/>
					<stop  offset="0.916" style="stop-color:#FCAD49"/>
					<stop  offset="0.958" style="stop-color:#F99A4D"/>
					<stop  offset="0.9955" style="stop-color:#F58152"/>
					<stop  offset="1" style="stop-color:#F57E53"/>
				</linearGradient>
				<path class="st15" d="M1227.22,3064.52c-181.75,0-370.98,15.99-401.25,46.95c1.18,1.09,2.29,2.26,3.31,3.48
					c25.51-21.5,181.77-43.14,397.95-43.14c221.72,0,380.49,22.77,399.72,44.8c0.95-1.21,1.96-2.36,3.05-3.45
					C1604.98,3081.11,1412.19,3064.52,1227.22,3064.52z"/>
			</g>
			<g>
				<linearGradient id="SVGID_16_" gradientUnits="userSpaceOnUse" x1="636.5508" y1="3088.3818" x2="1574.4114" y2="3088.3818">
					<stop  offset="0" style="stop-color:#FCB148"/>
					<stop  offset="0.0521" style="stop-color:#FDBA46"/>
					<stop  offset="0.1424" style="stop-color:#FFC244"/>
					<stop  offset="0.3183" style="stop-color:#FFC444"/>
					<stop  offset="0.4849" style="stop-color:#FDB946"/>
					<stop  offset="0.7754" style="stop-color:#F99C4D"/>
					<stop  offset="0.8658" style="stop-color:#F8924F"/>
					<stop  offset="1" style="stop-color:#F8924F"/>
				</linearGradient>
				<path class="st16" d="M706.24,3016.73v90.41c0,29.22,182.49,52.9,407.61,52.9c225.12,0,407.61-23.68,407.61-52.9v-90.41H706.24z
					"/>
				<linearGradient id="SVGID_17_" gradientUnits="userSpaceOnUse" x1="1109.7913" y1="2982.7361" x2="1159.2343" y2="3396.646">
					<stop  offset="0" style="stop-color:#FFDB44"/>
					<stop  offset="1" style="stop-color:#FEEF06"/>
				</linearGradient>
				<path class="st17" d="M1521.46,3016.73c0,29.21-182.49,52.9-407.61,52.9c-225.12,0-407.61-23.68-407.61-52.9
					c0-29.21,182.49-52.9,407.61-52.9C1338.97,2963.83,1521.46,2987.52,1521.46,3016.73z"/>
				<linearGradient id="SVGID_18_" gradientUnits="userSpaceOnUse" x1="1107.6415" y1="2964.2773" x2="1122.8262" y2="3091.3955">
					<stop  offset="0" style="stop-color:#FFDB44"/>
					<stop  offset="1" style="stop-color:#FEEF06"/>
				</linearGradient>
				<path class="st18" d="M1113.85,3073.27c-199.37,0-407.85-19.04-407.85-55.77c0-2.02,0.72-5.56,2.74-5.56
					c2.02,0,1.15,2.77,1.15,4.79c0,23.29,165.9,49.25,403.96,49.25s403.96-25.95,403.96-49.25c0-2.02,0.34-3.91,2.36-3.91
					c2.02,0,1.53,2.69,1.53,4.71C1521.7,3054.26,1313.22,3073.27,1113.85,3073.27z"/>
				<g>
					<path class="st14" d="M1075.33,3019.68c4-2.77,8.26-5.5,12.81-8.19c4.51-2.69,10.39-5.13,17.51-7.3
						c7.16-2.17,16.12-3.94,26.87-5.31c10.75-1.37,24.2-2.09,40.25-2.17c15.75-0.08,30.53,0.42,44.36,1.5
						c13.8,1.07,25.97,2.69,36.48,4.83c10.47,2.14,19.02,4.8,25.61,7.94c6.55,3.16,10.45,6.78,11.71,10.85l45.9,0.46
						c3.33,0.02,6.28,0.29,8.8,0.81c2.56,0.52,3.81,1.18,3.81,1.99l0.02,3.78l-59-0.57c-2.07,4.63-7.34,8.86-15.82,12.7
						c-8.43,3.84-19.22,7.17-32.35,9.98l-21.49-2.99c-1.92-0.29-3.5-0.67-4.74-1.12c-1.24-0.45-1.84-0.94-1.84-1.48
						c0-0.73,1.66-1.55,4.98-2.48c3.33-0.93,7.08-2.09,11.25-3.47c4.18-1.37,8.27-3,12.31-4.87c4-1.87,6.68-4.11,8.08-6.71
						l-139.27-1.38c-3.66,2.69-7.79,5.34-12.3,7.94c-4.56,2.6-10.56,4.94-18.07,7.02c-7.5,2.08-16.85,3.76-28.02,5.06
						c-11.22,1.29-25.26,1.98-42.25,2.07c-12.76,0.06-25.19-0.42-37.36-1.45c-12.17-1.03-22.98-2.57-32.43-4.62
						c-9.44-2.05-17.18-4.59-23.26-7.62c-6.03-3.03-9.42-6.5-10.13-10.43l-37.78-0.39c-3.33-0.02-6.28-0.28-8.93-0.79
						c-2.61-0.5-3.93-1.17-3.94-2.01l-0.02-3.78l51.66,0.49c2.29-3.98,6.96-7.45,14.12-10.4c7.16-2.96,15.9-5.59,26.22-7.89
						l17.3,2.38c5.25,0.74,7.86,1.6,7.87,2.59c0,0.54-1.06,1.2-3.24,1.99c-2.22,0.79-4.77,1.74-7.76,2.84
						c-2.94,1.11-5.84,2.4-8.6,3.88c-2.81,1.48-4.89,3.16-6.29,5.04L1075.33,3019.68z M947.88,3024.83
						c1.04,2.48,3.35,4.61,6.86,6.41c3.51,1.8,7.87,3.27,13.13,4.43c5.26,1.16,11.15,2,17.69,2.55c6.58,0.54,13.45,0.8,20.62,0.76
						c8.37-0.04,15.67-0.4,21.9-1.08c6.19-0.68,11.65-1.6,16.38-2.77c4.69-1.17,8.82-2.52,12.32-4.07c3.49-1.55,6.6-3.22,9.41-5.03
						L947.88,3024.83z M1251.06,3021.45c-1.04-2.51-3.57-4.71-7.5-6.6c-3.94-1.89-8.98-3.48-15.09-4.76
						c-6.11-1.29-13.25-2.25-21.4-2.87c-8.12-0.63-17.08-0.92-26.9-0.87c-8.71,0.04-16.26,0.43-22.54,1.17
						c-6.27,0.74-11.73,1.73-16.38,2.97c-4.6,1.24-8.57,2.69-11.76,4.35c-3.24,1.66-6.26,3.43-9.02,5.31L1251.06,3021.45z"/>
				</g>
				
					<linearGradient id="SVGID_19_" gradientUnits="userSpaceOnUse" x1="547.3336" y1="1049.7701" x2="562.4645" y2="1176.438" gradientTransform="matrix(-1 0 0 -1 1669.249 4127.8389)">
					<stop  offset="3.597120e-03" style="stop-color:#F36F56"/>
					<stop  offset="0.3059" style="stop-color:#F99C4C"/>
					<stop  offset="0.545" style="stop-color:#FDB946"/>
					<stop  offset="0.6817" style="stop-color:#FFC444"/>
					<stop  offset="0.8038" style="stop-color:#FFC244"/>
					<stop  offset="0.8667" style="stop-color:#FEBA46"/>
					<stop  offset="0.916" style="stop-color:#FCAD49"/>
					<stop  offset="0.958" style="stop-color:#F99A4D"/>
					<stop  offset="0.9955" style="stop-color:#F58152"/>
					<stop  offset="1" style="stop-color:#F57E53"/>
				</linearGradient>
				<path class="st19" d="M1113.91,2969.56c-181.75,0-370.98,15.99-401.25,46.95c1.18,1.09,2.29,2.26,3.31,3.48
					c25.51-21.5,181.77-43.14,397.95-43.14c221.72,0,380.49,22.77,399.72,44.79c0.94-1.21,1.95-2.36,3.05-3.45
					C1491.67,2986.14,1298.88,2969.56,1113.91,2969.56z"/>
			</g>
			<g>
				<linearGradient id="SVGID_20_" gradientUnits="userSpaceOnUse" x1="734.324" y1="2993.6956" x2="1672.1855" y2="2993.6956">
					<stop  offset="0" style="stop-color:#FCB148"/>
					<stop  offset="0.0521" style="stop-color:#FDBA46"/>
					<stop  offset="0.1424" style="stop-color:#FFC244"/>
					<stop  offset="0.3183" style="stop-color:#FFC444"/>
					<stop  offset="0.4849" style="stop-color:#FDB946"/>
					<stop  offset="0.7754" style="stop-color:#F99C4D"/>
					<stop  offset="0.8658" style="stop-color:#F8924F"/>
					<stop  offset="1" style="stop-color:#F8924F"/>
				</linearGradient>
				<path class="st20" d="M804.02,2922.04v90.41c0,29.22,182.49,52.9,407.61,52.9c225.12,0,407.61-23.68,407.61-52.9v-90.41H804.02z
					"/>
				<linearGradient id="SVGID_21_" gradientUnits="userSpaceOnUse" x1="1207.5649" y1="2888.0498" x2="1257.0079" y2="3301.9597">
					<stop  offset="0" style="stop-color:#FFDB44"/>
					<stop  offset="1" style="stop-color:#FEEF06"/>
				</linearGradient>
				<path class="st21" d="M1619.24,2922.04c0,29.21-182.49,52.9-407.61,52.9c-225.12,0-407.61-23.68-407.61-52.9
					c0-29.21,182.49-52.9,407.61-52.9C1436.74,2869.15,1619.24,2892.83,1619.24,2922.04z"/>
				<linearGradient id="SVGID_22_" gradientUnits="userSpaceOnUse" x1="1205.4156" y1="2869.5911" x2="1220.6003" y2="2996.7092">
					<stop  offset="0" style="stop-color:#FFDB44"/>
					<stop  offset="1" style="stop-color:#FEEF06"/>
				</linearGradient>
				<path class="st22" d="M1211.62,2978.59c-199.37,0-407.85-19.04-407.85-55.77c0-2.02,0.72-5.56,2.74-5.56
					c2.02,0,1.15,2.77,1.15,4.79c0,23.29,165.9,49.25,403.96,49.25s403.96-25.95,403.96-49.25c0-2.02,0.34-3.91,2.36-3.91
					c2.02,0,1.53,2.69,1.53,4.71C1619.48,2959.57,1410.99,2978.59,1211.62,2978.59z"/>
				<g>
					<path class="st14" d="M1173.11,2924.99c4-2.77,8.25-5.5,12.81-8.19c4.51-2.69,10.39-5.13,17.51-7.3
						c7.16-2.17,16.12-3.94,26.87-5.31c10.75-1.37,24.19-2.09,40.25-2.17c15.75-0.08,30.53,0.42,44.36,1.5
						c13.79,1.07,25.97,2.69,36.48,4.83c10.47,2.14,19.02,4.8,25.61,7.94c6.55,3.16,10.45,6.78,11.71,10.85l45.9,0.46
						c3.33,0.02,6.28,0.29,8.8,0.81c2.56,0.52,3.81,1.18,3.81,1.99l0.02,3.78l-59-0.57c-2.07,4.63-7.34,8.86-15.82,12.7
						c-8.43,3.84-19.22,7.17-32.35,9.98l-21.49-2.99c-1.92-0.29-3.5-0.67-4.74-1.12c-1.24-0.45-1.84-0.94-1.84-1.48
						c0-0.73,1.66-1.55,4.98-2.48c3.33-0.93,7.08-2.09,11.25-3.47c4.18-1.37,8.27-2.99,12.31-4.87c4-1.87,6.68-4.11,8.08-6.71
						l-139.27-1.38c-3.66,2.69-7.79,5.34-12.3,7.94c-4.55,2.6-10.56,4.94-18.07,7.02c-7.5,2.08-16.85,3.76-28.02,5.06
						c-11.22,1.3-25.26,1.98-42.25,2.07c-12.77,0.06-25.19-0.42-37.36-1.45c-12.17-1.03-22.98-2.57-32.43-4.62
						c-9.44-2.05-17.18-4.59-23.26-7.62c-6.03-3.03-9.42-6.5-10.13-10.43l-37.78-0.39c-3.33-0.02-6.28-0.28-8.93-0.79
						c-2.61-0.5-3.93-1.17-3.94-2.01l-0.02-3.78l51.66,0.49c2.29-3.98,6.96-7.45,14.12-10.41c7.16-2.96,15.9-5.59,26.22-7.89
						l17.3,2.38c5.25,0.74,7.86,1.6,7.87,2.59c0,0.54-1.06,1.2-3.23,1.99c-2.22,0.79-4.77,1.74-7.76,2.84
						c-2.94,1.11-5.84,2.4-8.6,3.88c-2.81,1.48-4.89,3.16-6.29,5.04L1173.11,2924.99z M1045.66,2930.14
						c1.04,2.48,3.35,4.61,6.86,6.41c3.51,1.8,7.87,3.27,13.13,4.43c5.26,1.16,11.15,2,17.69,2.55c6.58,0.54,13.45,0.8,20.62,0.76
						c8.37-0.04,15.67-0.4,21.9-1.08c6.19-0.68,11.65-1.6,16.38-2.77c4.69-1.17,8.82-2.52,12.32-4.07c3.49-1.55,6.6-3.22,9.41-5.03
						L1045.66,2930.14z M1348.84,2926.76c-1.04-2.51-3.57-4.71-7.5-6.6c-3.94-1.89-8.98-3.48-15.09-4.76
						c-6.11-1.29-13.25-2.25-21.4-2.87c-8.12-0.63-17.08-0.92-26.9-0.87c-8.71,0.04-16.26,0.43-22.54,1.17
						c-6.27,0.74-11.73,1.73-16.38,2.97c-4.6,1.24-8.57,2.69-11.76,4.35c-3.24,1.66-6.26,3.43-9.02,5.31L1348.84,2926.76z"/>
				</g>
				
					<linearGradient id="SVGID_23_" gradientUnits="userSpaceOnUse" x1="449.5594" y1="1144.4565" x2="464.6903" y2="1271.1244" gradientTransform="matrix(-1 0 0 -1 1669.249 4127.8389)">
					<stop  offset="3.597120e-03" style="stop-color:#F36F56"/>
					<stop  offset="0.3059" style="stop-color:#F99C4C"/>
					<stop  offset="0.545" style="stop-color:#FDB946"/>
					<stop  offset="0.6817" style="stop-color:#FFC444"/>
					<stop  offset="0.8038" style="stop-color:#FFC244"/>
					<stop  offset="0.8667" style="stop-color:#FEBA46"/>
					<stop  offset="0.916" style="stop-color:#FCAD49"/>
					<stop  offset="0.958" style="stop-color:#F99A4D"/>
					<stop  offset="0.9955" style="stop-color:#F58152"/>
					<stop  offset="1" style="stop-color:#F57E53"/>
				</linearGradient>
				<path class="st23" d="M1211.68,2874.87c-181.75,0-370.98,15.99-401.25,46.95c1.18,1.09,2.29,2.26,3.31,3.48
					c25.51-21.5,181.77-43.14,397.95-43.14c221.72,0,380.49,22.77,399.72,44.79c0.94-1.21,1.95-2.36,3.05-3.45
					C1589.45,2891.46,1396.66,2874.87,1211.68,2874.87z"/>
			</g>
			<g>
				<linearGradient id="SVGID_24_" gradientUnits="userSpaceOnUse" x1="793.6572" y1="2898.7319" x2="1731.5177" y2="2898.7319">
					<stop  offset="0" style="stop-color:#FCB148"/>
					<stop  offset="0.0521" style="stop-color:#FDBA46"/>
					<stop  offset="0.1424" style="stop-color:#FFC244"/>
					<stop  offset="0.3183" style="stop-color:#FFC444"/>
					<stop  offset="0.4849" style="stop-color:#FDB946"/>
					<stop  offset="0.7754" style="stop-color:#F99C4D"/>
					<stop  offset="0.8658" style="stop-color:#F8924F"/>
					<stop  offset="1" style="stop-color:#F8924F"/>
				</linearGradient>
				<path class="st24" d="M863.35,2827.08v90.41c0,29.22,182.49,52.9,407.61,52.9c225.12,0,407.61-23.68,407.61-52.9v-90.41H863.35z
					"/>
				<linearGradient id="SVGID_25_" gradientUnits="userSpaceOnUse" x1="1266.8976" y1="2793.0852" x2="1316.3406" y2="3206.9956">
					<stop  offset="0" style="stop-color:#FFDB44"/>
					<stop  offset="1" style="stop-color:#FEEF06"/>
				</linearGradient>
				<ellipse class="st25" cx="1270.96" cy="2827.08" rx="407.61" ry="52.9"/>
				<linearGradient id="SVGID_26_" gradientUnits="userSpaceOnUse" x1="1264.7471" y1="2774.6262" x2="1279.9318" y2="2901.7451">
					<stop  offset="0" style="stop-color:#FFDB44"/>
					<stop  offset="1" style="stop-color:#FEEF06"/>
				</linearGradient>
				<path class="st26" d="M1270.96,2883.62c-199.37,0-407.85-19.04-407.85-55.77c0-2.02,0.72-5.56,2.74-5.56
					c2.02,0,1.15,2.77,1.15,4.79c0,23.29,165.9,49.24,403.96,49.24c238.06,0,403.96-25.95,403.96-49.24c0-2.02,0.34-3.91,2.36-3.91
					c2.02,0,1.53,2.69,1.53,4.71C1678.81,2864.61,1470.33,2883.62,1270.96,2883.62z"/>
				<g>
					<path class="st14" d="M1232.44,2830.03c4-2.77,8.26-5.5,12.81-8.19c4.51-2.69,10.39-5.13,17.51-7.3
						c7.16-2.17,16.12-3.94,26.87-5.31c10.75-1.37,24.2-2.09,40.25-2.17c15.75-0.08,30.53,0.42,44.36,1.5
						c13.8,1.07,25.97,2.69,36.48,4.83c10.47,2.14,19.02,4.8,25.61,7.95c6.55,3.16,10.45,6.78,11.71,10.85l45.9,0.46
						c3.33,0.02,6.28,0.29,8.8,0.81c2.56,0.52,3.81,1.18,3.81,1.98l0.02,3.78l-59-0.57c-2.07,4.63-7.34,8.86-15.82,12.7
						c-8.43,3.84-19.22,7.17-32.35,9.98l-21.49-2.99c-1.92-0.29-3.5-0.67-4.75-1.12c-1.24-0.45-1.84-0.94-1.84-1.48
						c0-0.73,1.66-1.55,4.98-2.48c3.33-0.94,7.08-2.09,11.25-3.47c4.18-1.37,8.27-2.99,12.31-4.87c4-1.87,6.68-4.11,8.08-6.71
						l-139.27-1.38c-3.66,2.69-7.79,5.34-12.3,7.94c-4.56,2.6-10.56,4.94-18.07,7.02s-16.84,3.76-28.02,5.06
						c-11.22,1.29-25.26,1.98-42.26,2.07c-12.76,0.06-25.19-0.42-37.36-1.45c-12.17-1.03-22.98-2.57-32.43-4.62
						c-9.44-2.06-17.18-4.59-23.26-7.62c-6.03-3.03-9.42-6.5-10.13-10.43l-37.78-0.39c-3.33-0.02-6.28-0.28-8.93-0.79
						c-2.61-0.5-3.93-1.17-3.94-2.01l-0.02-3.78l51.66,0.49c2.29-3.98,6.97-7.45,14.12-10.41c7.16-2.96,15.9-5.59,26.22-7.89
						l17.3,2.38c5.26,0.74,7.86,1.6,7.87,2.59c0,0.54-1.06,1.2-3.23,1.99c-2.22,0.79-4.77,1.74-7.76,2.84
						c-2.94,1.1-5.84,2.4-8.61,3.88c-2.81,1.48-4.89,3.16-6.29,5.04L1232.44,2830.03z M1104.99,2835.18
						c1.04,2.48,3.35,4.61,6.86,6.41c3.51,1.8,7.87,3.27,13.13,4.43c5.26,1.16,11.15,2,17.69,2.55c6.58,0.54,13.45,0.8,20.62,0.76
						c8.37-0.04,15.67-0.4,21.9-1.08c6.19-0.68,11.65-1.6,16.38-2.77c4.69-1.17,8.82-2.52,12.32-4.07c3.49-1.55,6.6-3.22,9.41-5.03
						L1104.99,2835.18z M1408.17,2831.8c-1.04-2.51-3.57-4.71-7.5-6.6c-3.94-1.89-8.98-3.48-15.09-4.76
						c-6.11-1.29-13.25-2.25-21.4-2.87c-8.11-0.63-17.08-0.92-26.9-0.87c-8.71,0.04-16.26,0.43-22.54,1.17
						c-6.27,0.74-11.73,1.73-16.38,2.97c-4.61,1.24-8.57,2.69-11.76,4.35c-3.24,1.66-6.26,3.43-9.02,5.31L1408.17,2831.8z"/>
				</g>
				
					<linearGradient id="SVGID_27_" gradientUnits="userSpaceOnUse" x1="390.2278" y1="1239.4205" x2="405.3587" y2="1366.0884" gradientTransform="matrix(-1 0 0 -1 1669.249 4127.8389)">
					<stop  offset="3.597120e-03" style="stop-color:#F36F56"/>
					<stop  offset="0.3059" style="stop-color:#F99C4C"/>
					<stop  offset="0.545" style="stop-color:#FDB946"/>
					<stop  offset="0.6817" style="stop-color:#FFC444"/>
					<stop  offset="0.8038" style="stop-color:#FFC244"/>
					<stop  offset="0.8667" style="stop-color:#FEBA46"/>
					<stop  offset="0.916" style="stop-color:#FCAD49"/>
					<stop  offset="0.958" style="stop-color:#F99A4D"/>
					<stop  offset="0.9955" style="stop-color:#F58152"/>
					<stop  offset="1" style="stop-color:#F57E53"/>
				</linearGradient>
				<path class="st27" d="M1271.01,2779.91c-181.75,0-370.98,15.99-401.25,46.95c1.19,1.09,2.29,2.26,3.31,3.48
					c25.51-21.5,181.77-43.14,397.95-43.14c221.72,0,380.49,22.77,399.72,44.8c0.95-1.21,1.96-2.36,3.05-3.45
					C1648.78,2796.49,1455.99,2779.91,1271.01,2779.91z"/>
			</g>
			<g>
				<linearGradient id="SVGID_28_" gradientUnits="userSpaceOnUse" x1="749.8636" y1="2796.2756" x2="1687.7252" y2="2796.2756">
					<stop  offset="0" style="stop-color:#FCB148"/>
					<stop  offset="0.0521" style="stop-color:#FDBA46"/>
					<stop  offset="0.1424" style="stop-color:#FFC244"/>
					<stop  offset="0.3183" style="stop-color:#FFC444"/>
					<stop  offset="0.4849" style="stop-color:#FDB946"/>
					<stop  offset="0.7754" style="stop-color:#F99C4D"/>
					<stop  offset="0.8658" style="stop-color:#F8924F"/>
					<stop  offset="1" style="stop-color:#F8924F"/>
				</linearGradient>
				<path class="st28" d="M819.56,2724.62v90.41c0,29.21,182.49,52.9,407.61,52.9s407.61-23.68,407.61-52.9v-90.41H819.56z"/>
				<linearGradient id="SVGID_29_" gradientUnits="userSpaceOnUse" x1="1223.1045" y1="2690.6296" x2="1272.5475" y2="3104.54">
					<stop  offset="0" style="stop-color:#FFDB44"/>
					<stop  offset="1" style="stop-color:#FEEF06"/>
				</linearGradient>
				<path class="st29" d="M1634.78,2724.62c0,29.21-182.49,52.9-407.61,52.9s-407.61-23.68-407.61-52.9
					c0-29.21,182.49-52.9,407.61-52.9S1634.78,2695.41,1634.78,2724.62z"/>
				<linearGradient id="SVGID_30_" gradientUnits="userSpaceOnUse" x1="1220.9545" y1="2672.1702" x2="1236.1393" y2="2799.2891">
					<stop  offset="0" style="stop-color:#FFDB44"/>
					<stop  offset="1" style="stop-color:#FEEF06"/>
				</linearGradient>
				<path class="st30" d="M1227.16,2781.17c-199.37,0-407.85-19.04-407.85-55.77c0-2.02,0.72-5.56,2.74-5.56
					c2.02,0,1.15,2.77,1.15,4.79c0,23.29,165.9,49.25,403.96,49.25c238.06,0,403.96-25.95,403.96-49.25c0-2.02,0.34-3.91,2.36-3.91
					s1.53,2.69,1.53,4.71C1635.02,2762.15,1426.53,2781.17,1227.16,2781.17z"/>
				<g>
					<path class="st14" d="M1188.65,2727.57c4-2.77,8.26-5.5,12.81-8.19c4.51-2.69,10.39-5.13,17.51-7.3
						c7.16-2.17,16.12-3.94,26.87-5.31c10.75-1.37,24.2-2.09,40.25-2.17c15.75-0.08,30.53,0.42,44.36,1.5
						c13.79,1.07,25.97,2.69,36.48,4.83c10.47,2.14,19.02,4.79,25.61,7.95c6.55,3.16,10.45,6.78,11.71,10.85l45.9,0.47
						c3.33,0.02,6.28,0.29,8.8,0.81c2.56,0.52,3.81,1.18,3.81,1.99l0.02,3.78l-59-0.57c-2.07,4.63-7.34,8.86-15.82,12.7
						c-8.43,3.84-19.22,7.17-32.35,9.98l-21.49-2.99c-1.92-0.29-3.5-0.67-4.75-1.12c-1.24-0.45-1.84-0.94-1.84-1.48
						c0-0.73,1.66-1.56,4.98-2.48c3.33-0.94,7.08-2.09,11.25-3.47c4.18-1.37,8.27-2.99,12.31-4.87c4-1.87,6.68-4.11,8.08-6.71
						l-139.27-1.38c-3.66,2.69-7.79,5.34-12.3,7.94c-4.56,2.6-10.56,4.94-18.07,7.02c-7.5,2.08-16.84,3.76-28.02,5.06
						c-11.22,1.29-25.26,1.98-42.26,2.07c-12.77,0.06-25.19-0.42-37.36-1.45c-12.17-1.03-22.98-2.57-32.43-4.62
						c-9.45-2.06-17.18-4.59-23.26-7.62c-6.03-3.03-9.42-6.5-10.13-10.43l-37.78-0.39c-3.33-0.02-6.28-0.28-8.93-0.79
						c-2.61-0.5-3.93-1.17-3.94-2.01l-0.02-3.78l51.66,0.49c2.29-3.98,6.97-7.45,14.12-10.41c7.16-2.96,15.9-5.59,26.22-7.89
						l17.3,2.38c5.26,0.74,7.86,1.6,7.87,2.59c0,0.54-1.06,1.2-3.23,1.99c-2.22,0.79-4.77,1.74-7.76,2.84
						c-2.94,1.11-5.84,2.4-8.6,3.88c-2.81,1.48-4.89,3.16-6.29,5.04L1188.65,2727.57z M1061.19,2732.72
						c1.04,2.48,3.35,4.61,6.86,6.41c3.51,1.8,7.87,3.28,13.13,4.43c5.26,1.16,11.15,2.01,17.69,2.55
						c6.58,0.54,13.45,0.8,20.62,0.76c8.37-0.04,15.67-0.4,21.9-1.08c6.19-0.68,11.65-1.6,16.38-2.77
						c4.69-1.17,8.82-2.52,12.32-4.07c3.49-1.55,6.6-3.22,9.41-5.03L1061.19,2732.72z M1364.38,2729.34
						c-1.04-2.51-3.57-4.71-7.5-6.6c-3.94-1.89-8.98-3.48-15.09-4.76c-6.11-1.29-13.25-2.25-21.4-2.87
						c-8.11-0.63-17.08-0.92-26.9-0.87c-8.71,0.04-16.26,0.43-22.54,1.17c-6.27,0.74-11.73,1.73-16.38,2.97
						c-4.61,1.24-8.57,2.69-11.76,4.35c-3.24,1.66-6.26,3.43-9.03,5.32L1364.38,2729.34z"/>
				</g>
				
					<linearGradient id="SVGID_31_" gradientUnits="userSpaceOnUse" x1="434.0199" y1="1341.8768" x2="449.1507" y2="1468.5442" gradientTransform="matrix(-1 0 0 -1 1669.249 4127.8389)">
					<stop  offset="3.597120e-03" style="stop-color:#F36F56"/>
					<stop  offset="0.3059" style="stop-color:#F99C4C"/>
					<stop  offset="0.545" style="stop-color:#FDB946"/>
					<stop  offset="0.6817" style="stop-color:#FFC444"/>
					<stop  offset="0.8038" style="stop-color:#FFC244"/>
					<stop  offset="0.8667" style="stop-color:#FEBA46"/>
					<stop  offset="0.916" style="stop-color:#FCAD49"/>
					<stop  offset="0.958" style="stop-color:#F99A4D"/>
					<stop  offset="0.9955" style="stop-color:#F58152"/>
					<stop  offset="1" style="stop-color:#F57E53"/>
				</linearGradient>
				<path class="st31" d="M1227.22,2677.45c-181.75,0-370.98,15.99-401.25,46.95c1.18,1.09,2.29,2.26,3.31,3.48
					c25.51-21.5,181.77-43.14,397.95-43.14c221.72,0,380.49,22.77,399.72,44.79c0.95-1.21,1.96-2.36,3.05-3.45
					C1604.98,2694.04,1412.19,2677.45,1227.22,2677.45z"/>
			</g>
			<g>
				<linearGradient id="SVGID_32_" gradientUnits="userSpaceOnUse" x1="636.5508" y1="2701.3108" x2="1574.4114" y2="2701.3108">
					<stop  offset="0" style="stop-color:#FCB148"/>
					<stop  offset="0.0521" style="stop-color:#FDBA46"/>
					<stop  offset="0.1424" style="stop-color:#FFC244"/>
					<stop  offset="0.3183" style="stop-color:#FFC444"/>
					<stop  offset="0.4849" style="stop-color:#FDB946"/>
					<stop  offset="0.7754" style="stop-color:#F99C4D"/>
					<stop  offset="0.8658" style="stop-color:#F8924F"/>
					<stop  offset="1" style="stop-color:#F8924F"/>
				</linearGradient>
				<path class="st32" d="M706.24,2629.66v90.41c0,29.21,182.49,52.9,407.61,52.9c225.12,0,407.61-23.68,407.61-52.9v-90.41H706.24z
					"/>
				<linearGradient id="SVGID_33_" gradientUnits="userSpaceOnUse" x1="1109.7911" y1="2595.6648" x2="1159.2344" y2="3009.5762">
					<stop  offset="0" style="stop-color:#FFDB44"/>
					<stop  offset="1" style="stop-color:#FEEF06"/>
				</linearGradient>
				<ellipse class="st33" cx="1113.85" cy="2629.66" rx="407.61" ry="52.9"/>
				<linearGradient id="SVGID_34_" gradientUnits="userSpaceOnUse" x1="1107.6415" y1="2577.2061" x2="1122.8263" y2="2704.325">
					<stop  offset="0" style="stop-color:#FFDB44"/>
					<stop  offset="1" style="stop-color:#FEEF06"/>
				</linearGradient>
				<path class="st34" d="M1113.85,2686.2c-199.37,0-407.85-19.04-407.85-55.77c0-2.02,0.72-5.56,2.74-5.56
					c2.02,0,1.15,2.77,1.15,4.79c0,23.29,165.9,49.25,403.96,49.25s403.96-25.95,403.96-49.25c0-2.02,0.34-3.91,2.36-3.91
					c2.02,0,1.53,2.69,1.53,4.71C1521.7,2667.19,1313.22,2686.2,1113.85,2686.2z"/>
				<g>
					<path class="st14" d="M1075.33,2632.61c4-2.77,8.26-5.5,12.81-8.19c4.51-2.69,10.39-5.13,17.51-7.3
						c7.16-2.17,16.12-3.94,26.87-5.31c10.75-1.37,24.2-2.09,40.25-2.17c15.75-0.08,30.53,0.42,44.36,1.5
						c13.8,1.07,25.97,2.69,36.48,4.83c10.47,2.14,19.02,4.79,25.61,7.95c6.55,3.16,10.45,6.78,11.71,10.85l45.9,0.47
						c3.33,0.02,6.28,0.29,8.8,0.81c2.56,0.52,3.81,1.18,3.81,1.99l0.02,3.78l-59-0.57c-2.07,4.63-7.34,8.86-15.82,12.7
						c-8.43,3.84-19.22,7.17-32.35,9.98l-21.49-2.99c-1.92-0.29-3.5-0.67-4.74-1.12c-1.24-0.45-1.84-0.94-1.84-1.48
						c0-0.73,1.66-1.56,4.98-2.49c3.33-0.93,7.08-2.09,11.25-3.47c4.18-1.37,8.27-2.99,12.31-4.87c4-1.87,6.68-4.11,8.08-6.71
						l-139.27-1.38c-3.66,2.69-7.79,5.34-12.3,7.94c-4.56,2.6-10.56,4.94-18.07,7.02c-7.5,2.08-16.85,3.76-28.02,5.06
						c-11.22,1.3-25.26,1.98-42.25,2.07c-12.76,0.06-25.19-0.42-37.36-1.45c-12.17-1.03-22.98-2.57-32.43-4.62
						c-9.44-2.05-17.18-4.59-23.26-7.62c-6.03-3.03-9.42-6.5-10.13-10.43l-37.78-0.39c-3.33-0.02-6.28-0.28-8.93-0.79
						c-2.61-0.5-3.93-1.17-3.94-2.01l-0.02-3.78l51.66,0.49c2.29-3.98,6.96-7.45,14.12-10.41c7.16-2.96,15.9-5.59,26.22-7.89
						l17.3,2.38c5.25,0.74,7.86,1.6,7.87,2.59c0,0.54-1.06,1.2-3.24,1.99c-2.22,0.79-4.77,1.74-7.76,2.84
						c-2.94,1.1-5.84,2.39-8.6,3.88c-2.81,1.48-4.89,3.16-6.29,5.04L1075.33,2632.61z M947.88,2637.76
						c1.04,2.48,3.35,4.61,6.86,6.41c3.51,1.8,7.87,3.28,13.13,4.43c5.26,1.16,11.15,2,17.69,2.55c6.58,0.54,13.45,0.8,20.62,0.76
						c8.37-0.04,15.67-0.4,21.9-1.08c6.19-0.68,11.65-1.6,16.38-2.77c4.69-1.17,8.82-2.52,12.32-4.07c3.49-1.55,6.6-3.22,9.41-5.03
						L947.88,2637.76z M1251.06,2634.38c-1.04-2.51-3.57-4.71-7.5-6.6c-3.94-1.89-8.98-3.48-15.09-4.76
						c-6.11-1.29-13.25-2.25-21.4-2.87c-8.12-0.63-17.08-0.92-26.9-0.87c-8.71,0.04-16.26,0.43-22.54,1.17
						c-6.27,0.74-11.73,1.73-16.38,2.97c-4.6,1.24-8.57,2.69-11.76,4.35c-3.24,1.66-6.26,3.43-9.02,5.31L1251.06,2634.38z"/>
				</g>
				
					<linearGradient id="SVGID_35_" gradientUnits="userSpaceOnUse" x1="547.3337" y1="1436.8417" x2="562.4645" y2="1563.509" gradientTransform="matrix(-1 0 0 -1 1669.249 4127.8389)">
					<stop  offset="3.597120e-03" style="stop-color:#F36F56"/>
					<stop  offset="0.3059" style="stop-color:#F99C4C"/>
					<stop  offset="0.545" style="stop-color:#FDB946"/>
					<stop  offset="0.6817" style="stop-color:#FFC444"/>
					<stop  offset="0.8038" style="stop-color:#FFC244"/>
					<stop  offset="0.8667" style="stop-color:#FEBA46"/>
					<stop  offset="0.916" style="stop-color:#FCAD49"/>
					<stop  offset="0.958" style="stop-color:#F99A4D"/>
					<stop  offset="0.9955" style="stop-color:#F58152"/>
					<stop  offset="1" style="stop-color:#F57E53"/>
				</linearGradient>
				<path class="st35" d="M1113.91,2582.49c-181.75,0-370.98,15.99-401.25,46.95c1.18,1.09,2.29,2.26,3.31,3.48
					c25.51-21.5,181.77-43.14,397.95-43.14c221.72,0,380.49,22.77,399.72,44.79c0.94-1.21,1.95-2.36,3.05-3.45
					C1491.67,2599.07,1298.88,2582.49,1113.91,2582.49z"/>
			</g>
			<g>
				<linearGradient id="SVGID_36_" gradientUnits="userSpaceOnUse" x1="734.324" y1="2606.6255" x2="1672.1855" y2="2606.6255">
					<stop  offset="0" style="stop-color:#FCB148"/>
					<stop  offset="0.0521" style="stop-color:#FDBA46"/>
					<stop  offset="0.1424" style="stop-color:#FFC244"/>
					<stop  offset="0.3183" style="stop-color:#FFC444"/>
					<stop  offset="0.4849" style="stop-color:#FDB946"/>
					<stop  offset="0.7754" style="stop-color:#F99C4D"/>
					<stop  offset="0.8658" style="stop-color:#F8924F"/>
					<stop  offset="1" style="stop-color:#F8924F"/>
				</linearGradient>
				<path class="st36" d="M804.02,2534.97v90.41c0,29.21,182.49,52.9,407.61,52.9c225.12,0,407.61-23.68,407.61-52.9v-90.41H804.02z
					"/>
				<linearGradient id="SVGID_37_" gradientUnits="userSpaceOnUse" x1="1207.5648" y1="2500.9785" x2="1257.0079" y2="2914.8899">
					<stop  offset="0" style="stop-color:#FFDB44"/>
					<stop  offset="1" style="stop-color:#FEEF06"/>
				</linearGradient>
				<ellipse class="st37" cx="1211.63" cy="2534.97" rx="407.61" ry="52.9"/>
				<linearGradient id="SVGID_38_" gradientUnits="userSpaceOnUse" x1="1205.4156" y1="2482.5195" x2="1220.6005" y2="2609.6387">
					<stop  offset="0" style="stop-color:#FFDB44"/>
					<stop  offset="1" style="stop-color:#FEEF06"/>
				</linearGradient>
				<path class="st38" d="M1211.62,2591.52c-199.37,0-407.85-19.04-407.85-55.77c0-2.02,0.72-5.56,2.74-5.56
					c2.02,0,1.15,2.77,1.15,4.79c0,23.29,165.9,49.24,403.96,49.24s403.96-25.95,403.96-49.24c0-2.02,0.34-3.91,2.36-3.91
					c2.02,0,1.53,2.69,1.53,4.71C1619.48,2572.5,1410.99,2591.52,1211.62,2591.52z"/>
				<g>
					<path class="st14" d="M1173.11,2537.92c4-2.77,8.25-5.5,12.81-8.19c4.51-2.69,10.39-5.13,17.51-7.3
						c7.16-2.17,16.12-3.94,26.87-5.31c10.75-1.37,24.19-2.09,40.25-2.17c15.75-0.08,30.53,0.42,44.36,1.5
						c13.79,1.07,25.97,2.69,36.48,4.83c10.47,2.14,19.02,4.79,25.61,7.95c6.55,3.16,10.45,6.78,11.71,10.85l45.9,0.47
						c3.33,0.02,6.28,0.29,8.8,0.81c2.56,0.52,3.81,1.18,3.81,1.99l0.02,3.78l-59-0.57c-2.07,4.63-7.34,8.86-15.82,12.7
						c-8.43,3.84-19.22,7.17-32.35,9.98l-21.49-2.99c-1.92-0.29-3.5-0.67-4.74-1.12c-1.24-0.45-1.84-0.94-1.84-1.48
						c0-0.73,1.66-1.56,4.98-2.49c3.33-0.93,7.08-2.09,11.25-3.47c4.18-1.37,8.27-2.99,12.31-4.87c4-1.87,6.68-4.11,8.08-6.71
						l-139.27-1.38c-3.66,2.69-7.79,5.34-12.3,7.93c-4.55,2.6-10.56,4.94-18.07,7.02c-7.5,2.08-16.85,3.76-28.02,5.06
						c-11.22,1.3-25.26,1.98-42.25,2.07c-12.77,0.06-25.19-0.42-37.36-1.45c-12.17-1.03-22.98-2.57-32.43-4.62
						c-9.44-2.05-17.18-4.59-23.26-7.62c-6.03-3.03-9.42-6.5-10.13-10.43l-37.78-0.39c-3.33-0.02-6.28-0.28-8.93-0.79
						c-2.61-0.5-3.93-1.17-3.94-2.01l-0.02-3.78l51.66,0.49c2.29-3.98,6.96-7.45,14.12-10.4c7.16-2.96,15.9-5.59,26.22-7.89
						l17.3,2.38c5.25,0.74,7.86,1.6,7.87,2.59c0,0.53-1.06,1.2-3.23,1.99c-2.22,0.79-4.77,1.74-7.76,2.84
						c-2.94,1.1-5.84,2.4-8.6,3.88c-2.81,1.48-4.89,3.16-6.29,5.04L1173.11,2537.92z M1045.66,2543.07
						c1.04,2.48,3.35,4.61,6.86,6.41c3.51,1.8,7.87,3.28,13.13,4.43c5.26,1.16,11.15,2.01,17.69,2.55
						c6.58,0.54,13.45,0.8,20.62,0.76c8.37-0.04,15.67-0.4,21.9-1.08c6.19-0.68,11.65-1.6,16.38-2.77
						c4.69-1.17,8.82-2.52,12.32-4.07c3.49-1.55,6.6-3.22,9.41-5.03L1045.66,2543.07z M1348.84,2539.69
						c-1.04-2.51-3.57-4.71-7.5-6.6c-3.94-1.89-8.98-3.48-15.09-4.76c-6.11-1.29-13.25-2.25-21.4-2.87
						c-8.12-0.63-17.08-0.92-26.9-0.87c-8.71,0.04-16.26,0.43-22.54,1.17c-6.27,0.74-11.73,1.73-16.38,2.97
						c-4.6,1.24-8.57,2.69-11.76,4.35c-3.24,1.66-6.26,3.43-9.02,5.31L1348.84,2539.69z"/>
				</g>
				
					<linearGradient id="SVGID_39_" gradientUnits="userSpaceOnUse" x1="449.5594" y1="1531.528" x2="464.6903" y2="1658.1954" gradientTransform="matrix(-1 0 0 -1 1669.249 4127.8389)">
					<stop  offset="3.597120e-03" style="stop-color:#F36F56"/>
					<stop  offset="0.3059" style="stop-color:#F99C4C"/>
					<stop  offset="0.545" style="stop-color:#FDB946"/>
					<stop  offset="0.6817" style="stop-color:#FFC444"/>
					<stop  offset="0.8038" style="stop-color:#FFC244"/>
					<stop  offset="0.8667" style="stop-color:#FEBA46"/>
					<stop  offset="0.916" style="stop-color:#FCAD49"/>
					<stop  offset="0.958" style="stop-color:#F99A4D"/>
					<stop  offset="0.9955" style="stop-color:#F58152"/>
					<stop  offset="1" style="stop-color:#F57E53"/>
				</linearGradient>
				<path class="st39" d="M1211.68,2487.8c-181.75,0-370.98,15.99-401.25,46.95c1.18,1.09,2.29,2.26,3.31,3.48
					c25.51-21.49,181.77-43.14,397.95-43.14c221.72,0,380.49,22.77,399.72,44.79c0.94-1.21,1.95-2.36,3.05-3.45
					C1589.45,2504.39,1396.66,2487.8,1211.68,2487.8z"/>
			</g>
			<g>
				<linearGradient id="SVGID_40_" gradientUnits="userSpaceOnUse" x1="683.4686" y1="2511.6609" x2="1621.3293" y2="2511.6609">
					<stop  offset="0" style="stop-color:#FCB148"/>
					<stop  offset="0.0521" style="stop-color:#FDBA46"/>
					<stop  offset="0.1424" style="stop-color:#FFC244"/>
					<stop  offset="0.3183" style="stop-color:#FFC444"/>
					<stop  offset="0.4849" style="stop-color:#FDB946"/>
					<stop  offset="0.7754" style="stop-color:#F99C4D"/>
					<stop  offset="0.8658" style="stop-color:#F8924F"/>
					<stop  offset="1" style="stop-color:#F8924F"/>
				</linearGradient>
				<path class="st40" d="M753.16,2440.01v90.41c0,29.21,182.49,52.9,407.61,52.9c225.12,0,407.61-23.68,407.61-52.9v-90.41H753.16z
					"/>
				<linearGradient id="SVGID_41_" gradientUnits="userSpaceOnUse" x1="1156.7091" y1="2406.0146" x2="1206.1523" y2="2819.9268">
					<stop  offset="0" style="stop-color:#FFDB44"/>
					<stop  offset="1" style="stop-color:#FEEF06"/>
				</linearGradient>
				<ellipse class="st41" cx="1160.77" cy="2440.01" rx="407.61" ry="52.9"/>
				<linearGradient id="SVGID_42_" gradientUnits="userSpaceOnUse" x1="1154.5593" y1="2387.5557" x2="1169.744" y2="2514.6738">
					<stop  offset="0" style="stop-color:#FFDB44"/>
					<stop  offset="1" style="stop-color:#FEEF06"/>
				</linearGradient>
				<path class="st42" d="M1160.77,2496.55c-199.37,0-407.85-19.04-407.85-55.77c0-2.02,0.72-5.56,2.74-5.56
					c2.02,0,1.15,2.77,1.15,4.79c0,23.29,165.9,49.25,403.96,49.25c238.06,0,403.96-25.95,403.96-49.25c0-2.02,0.34-3.91,2.36-3.91
					c2.02,0,1.53,2.69,1.53,4.71C1568.62,2477.54,1360.14,2496.55,1160.77,2496.55z"/>
				<g>
					<path class="st14" d="M1122.25,2442.96c4-2.77,8.26-5.5,12.81-8.19c4.51-2.69,10.39-5.13,17.51-7.3
						c7.16-2.17,16.12-3.94,26.87-5.31c10.75-1.37,24.2-2.09,40.25-2.17c15.75-0.08,30.53,0.42,44.36,1.5
						c13.8,1.07,25.97,2.69,36.48,4.83c10.47,2.14,19.02,4.79,25.61,7.94c6.55,3.16,10.45,6.78,11.71,10.85l45.9,0.47
						c3.33,0.02,6.28,0.29,8.8,0.81c2.56,0.52,3.81,1.18,3.81,1.99l0.02,3.78l-59-0.57c-2.07,4.63-7.34,8.86-15.82,12.7
						c-8.43,3.84-19.22,7.17-32.35,9.98l-21.49-2.99c-1.92-0.29-3.5-0.67-4.74-1.12c-1.24-0.45-1.84-0.94-1.84-1.48
						c0-0.73,1.66-1.56,4.98-2.49c3.33-0.93,7.08-2.09,11.25-3.47c4.18-1.37,8.27-2.99,12.31-4.87c4-1.87,6.68-4.11,8.08-6.71
						l-139.27-1.38c-3.66,2.69-7.79,5.34-12.3,7.94c-4.56,2.6-10.56,4.94-18.07,7.02c-7.5,2.08-16.85,3.76-28.02,5.06
						c-11.22,1.29-25.26,1.98-42.25,2.07c-12.76,0.06-25.19-0.42-37.36-1.45c-12.17-1.03-22.98-2.57-32.43-4.62
						c-9.44-2.06-17.18-4.59-23.26-7.62c-6.03-3.03-9.42-6.5-10.13-10.43l-37.78-0.39c-3.33-0.02-6.28-0.28-8.93-0.79
						c-2.61-0.5-3.93-1.17-3.94-2.01l-0.02-3.78l51.66,0.49c2.29-3.98,6.96-7.45,14.12-10.4c7.16-2.96,15.9-5.59,26.22-7.89
						l17.3,2.38c5.25,0.74,7.86,1.6,7.87,2.59c0,0.54-1.06,1.2-3.23,1.99c-2.22,0.79-4.77,1.74-7.76,2.84
						c-2.94,1.11-5.84,2.4-8.61,3.88c-2.81,1.48-4.89,3.16-6.29,5.04L1122.25,2442.96z M994.8,2448.11
						c1.04,2.48,3.35,4.61,6.86,6.41c3.51,1.8,7.87,3.28,13.13,4.43s11.15,2,17.69,2.55c6.58,0.54,13.45,0.8,20.62,0.76
						c8.37-0.04,15.67-0.4,21.9-1.08c6.19-0.68,11.65-1.6,16.38-2.77c4.69-1.17,8.82-2.52,12.32-4.07c3.49-1.55,6.6-3.22,9.41-5.03
						L994.8,2448.11z M1297.98,2444.73c-1.04-2.51-3.57-4.71-7.5-6.6c-3.94-1.89-8.98-3.48-15.09-4.76
						c-6.11-1.29-13.25-2.25-21.4-2.87c-8.12-0.63-17.08-0.92-26.9-0.87c-8.71,0.04-16.26,0.43-22.54,1.17
						c-6.27,0.74-11.73,1.73-16.38,2.97c-4.6,1.24-8.57,2.69-11.76,4.35c-3.24,1.66-6.26,3.43-9.02,5.31L1297.98,2444.73z"/>
				</g>
				
					<linearGradient id="SVGID_43_" gradientUnits="userSpaceOnUse" x1="500.4153" y1="1626.4919" x2="515.5462" y2="1753.1595" gradientTransform="matrix(-1 0 0 -1 1669.249 4127.8389)">
					<stop  offset="3.597120e-03" style="stop-color:#F36F56"/>
					<stop  offset="0.3059" style="stop-color:#F99C4C"/>
					<stop  offset="0.545" style="stop-color:#FDB946"/>
					<stop  offset="0.6817" style="stop-color:#FFC444"/>
					<stop  offset="0.8038" style="stop-color:#FFC244"/>
					<stop  offset="0.8667" style="stop-color:#FEBA46"/>
					<stop  offset="0.916" style="stop-color:#FCAD49"/>
					<stop  offset="0.958" style="stop-color:#F99A4D"/>
					<stop  offset="0.9955" style="stop-color:#F58152"/>
					<stop  offset="1" style="stop-color:#F57E53"/>
				</linearGradient>
				<path class="st43" d="M1160.82,2392.84c-181.75,0-370.98,15.99-401.25,46.95c1.18,1.09,2.29,2.26,3.31,3.48
					c25.51-21.5,181.77-43.14,397.94-43.14c221.72,0,380.49,22.77,399.72,44.79c0.94-1.21,1.95-2.36,3.05-3.45
					C1538.59,2409.42,1345.8,2392.84,1160.82,2392.84z"/>
			</g>
			<g>
				
					<linearGradient id="SVGID_44_" gradientUnits="userSpaceOnUse" x1="1851.0989" y1="2088.252" x2="2788.9641" y2="2088.252" gradientTransform="matrix(0.5796 0.8149 -0.8149 0.5796 2214.3765 -230.3409)">
					<stop  offset="0" style="stop-color:#FCB148"/>
					<stop  offset="0.0521" style="stop-color:#FDBA46"/>
					<stop  offset="0.1424" style="stop-color:#FFC244"/>
					<stop  offset="0.3183" style="stop-color:#FFC444"/>
					<stop  offset="0.4849" style="stop-color:#FDB946"/>
					<stop  offset="0.7754" style="stop-color:#F99C4D"/>
					<stop  offset="0.8658" style="stop-color:#F8924F"/>
					<stop  offset="1" style="stop-color:#F8924F"/>
				</linearGradient>
				<path class="st44" d="M1684.32,2503.74l-73.67,52.4c-23.81,16.93,62.67,179.37,193.16,362.81
					c130.48,183.44,255.56,318.43,279.37,301.49l73.67-52.4L1684.32,2503.74z"/>
				
					<linearGradient id="SVGID_45_" gradientUnits="userSpaceOnUse" x1="2324.3403" y1="1982.6161" x2="2373.7776" y2="2396.4773" gradientTransform="matrix(0.5796 0.8149 -0.8149 0.5796 2214.3765 -230.3409)">
					<stop  offset="0" style="stop-color:#FFDB44"/>
					<stop  offset="1" style="stop-color:#FEEF06"/>
				</linearGradient>
				<path class="st45" d="M2156.85,3168.05c-23.81,16.93-148.88-118.05-279.37-301.49c-130.48-183.44-216.96-345.88-193.16-362.81
					c23.81-16.93,148.88,118.05,279.37,301.49C2094.17,2988.68,2180.65,3151.12,2156.85,3168.05z"/>
				
					<linearGradient id="SVGID_46_" gradientUnits="userSpaceOnUse" x1="2322.1909" y1="1964.1664" x2="2337.373" y2="2091.2634" gradientTransform="matrix(0.5796 0.8149 -0.8149 0.5796 2214.3765 -230.3409)">
					<stop  offset="0" style="stop-color:#FFDB44"/>
					<stop  offset="1" style="stop-color:#FEEF06"/>
				</linearGradient>
				<path class="st46" d="M1874.51,2868.67c-115.56-162.46-220.88-343.38-190.95-364.67c1.64-1.17,4.95-2.64,6.12-0.99
					c1.17,1.64-1.59,2.54-3.24,3.71c-18.98,13.5,56.03,163.73,194.02,357.72c137.99,193.99,255.29,314.14,274.28,300.64
					c1.64-1.17,3.38-1.98,4.55-0.34c1.17,1.64-1.31,2.81-2.95,3.98C2126.4,3190,1990.07,3031.13,1874.51,2868.67z"/>
				<g>
					<path class="st14" d="M1895.86,2806.22c4.57,1.65,9.26,3.54,14.1,5.69c4.81,2.12,10.2,5.5,16.1,10.04
						c5.92,4.58,12.55,10.85,19.9,18.82c7.35,7.97,15.73,18.5,25.1,31.54c9.19,12.79,17.35,25.12,24.49,37.02
						c7.12,11.86,12.86,22.72,17.21,32.53c4.32,9.77,7.12,18.28,8.37,25.48c1.22,7.17,0.54,12.44-2.06,15.83l26.22,37.67
						c1.91,2.73,3.4,5.28,4.44,7.64c1.06,2.39,1.24,3.79,0.59,4.25l-3.07,2.21l-33.74-48.41c-4.97,1-11.48-0.85-19.52-5.53
						c-8.02-4.64-16.98-11.51-26.89-20.58l-10.02-19.24c-0.87-1.74-1.49-3.24-1.83-4.52c-0.35-1.27-0.3-2.05,0.13-2.36
						c0.59-0.42,2.23,0.45,4.91,2.62c2.69,2.17,5.8,4.56,9.35,7.16c3.54,2.61,7.23,5,11.11,7.21c3.84,2.18,7.22,3.07,10.15,2.7
						l-79.6-114.29c-4.32-1.42-8.86-3.25-13.6-5.42c-4.76-2.21-10.15-5.74-16.19-10.65c-6.04-4.91-12.83-11.55-20.37-19.9
						c-7.56-8.39-16.26-19.44-26.18-33.23c-7.45-10.37-14.26-20.77-20.48-31.29c-6.22-10.52-11.22-20.22-15.03-29.1
						c-3.8-8.89-6.22-16.67-7.28-23.37c-1.03-6.67-0.17-11.45,2.63-14.3l-21.58-31.01c-1.91-2.73-3.41-5.28-4.53-7.73
						c-1.1-2.42-1.32-3.89-0.64-4.38l3.07-2.21l29.54,42.38c4.57-0.45,10.11,1.35,16.67,5.48c6.56,4.12,13.77,9.72,21.62,16.79
						l8.09,15.48c2.44,4.71,3.25,7.34,2.45,7.92c-0.44,0.31-1.59-0.17-3.5-1.48c-1.93-1.35-4.19-2.88-6.81-4.67
						c-2.6-1.76-5.34-3.37-8.15-4.76c-2.84-1.43-5.41-2.16-7.76-2.21L1895.86,2806.22z M1817.79,2705.34
						c-1.42,2.28-1.81,5.4-1.24,9.31c0.57,3.9,1.89,8.31,4,13.27c2.1,4.95,4.83,10.25,8.18,15.89c3.37,5.67,7.15,11.42,11.33,17.25
						c4.88,6.79,9.41,12.53,13.57,17.22c4.14,4.65,8.06,8.56,11.75,11.74c3.67,3.15,7.17,5.73,10.45,7.68
						c3.28,1.95,6.45,3.51,9.55,4.75L1817.79,2705.34z M1996.27,2950.44c1.45-2.3,1.77-5.64,1.03-9.94
						c-0.75-4.3-2.37-9.34-4.87-15.06c-2.49-5.73-5.85-12.1-10.06-19.11c-4.19-6.98-9.15-14.45-14.88-22.43
						c-5.08-7.07-9.78-13-14.01-17.69c-4.24-4.68-8.21-8.56-11.92-11.62c-3.68-3.03-7.16-5.42-10.36-7.06
						c-3.23-1.68-6.42-3.11-9.56-4.27L1996.27,2950.44z"/>
				</g>
				
					<linearGradient id="SVGID_47_" gradientUnits="userSpaceOnUse" x1="-666.647" y1="2049.4514" x2="-651.5189" y2="2176.0955" gradientTransform="matrix(-0.5796 -0.8149 0.8149 -0.5796 -181.2018 3522.6223)">
					<stop  offset="3.597120e-03" style="stop-color:#F36F56"/>
					<stop  offset="0.3059" style="stop-color:#F99C4C"/>
					<stop  offset="0.545" style="stop-color:#FDB946"/>
					<stop  offset="0.6817" style="stop-color:#FFC444"/>
					<stop  offset="0.8038" style="stop-color:#FFC244"/>
					<stop  offset="0.8667" style="stop-color:#FEBA46"/>
					<stop  offset="0.916" style="stop-color:#FCAD49"/>
					<stop  offset="0.958" style="stop-color:#F99A4D"/>
					<stop  offset="0.9955" style="stop-color:#F58152"/>
					<stop  offset="1" style="stop-color:#F57E53"/>
				</linearGradient>
				<path class="st47" d="M1959.06,2808.6c-105.34-148.1-228.06-293.04-270.84-299.76c-0.2,1.6-0.51,3.17-0.92,4.72
					c32.3,8.33,140.51,123.12,265.81,299.28c128.52,180.68,201.99,323.25,195.18,351.69c1.53,0.07,3.06,0.22,4.58,0.48
					C2164.5,3126.05,2066.27,2959.33,1959.06,2808.6z"/>
			</g>
		</g>
		<g>
			<linearGradient id="SVGID_48_" gradientUnits="userSpaceOnUse" x1="2693.7786" y1="4417.8877" x2="2713.1272" y2="2978.4302">
				<stop  offset="0" style="stop-color:#444B8C"/>
				<stop  offset="0.9964" style="stop-color:#26264F"/>
			</linearGradient>
			<path class="st48" d="M3109.94,2191.25l-2.59,879.85c-0.13,43.13-34.87,80.6-78.24,82.85l-617.45,31.95
				c-46.01,2.38-83.49-32.61-83.49-77.26v-910.87c0-42.28,33.25-77.15,75.61-81.37c2.71-0.27,5.47-0.36,8.24-0.38l619.84-2.96
				C3075.39,2112.85,3110.07,2147.8,3109.94,2191.25z"/>
			<linearGradient id="SVGID_49_" gradientUnits="userSpaceOnUse" x1="2740.1174" y1="4415.0913" x2="2759.446" y2="2977.1116">
				<stop  offset="0" style="stop-color:#AA80F9"/>
				<stop  offset="0.9964" style="stop-color:#6165D7"/>
			</linearGradient>
			<path class="st49" d="M3155.55,2190.78l-2.7,879.08c-0.13,43.1-33.01,80.44-76.3,82.67l-616.18,31.85
				c-45.91,2.37-85.21-32.49-85.2-77.1l0.12-910.01c0.01-42.24,34.12-77.08,76.4-81.3c2.7-0.27,6.4-0.37,9.17-0.38l618.59-2.96
				C3122.9,2112.44,3155.68,2147.37,3155.55,2190.78z"/>
			<g class="st50">
				<linearGradient id="SVGID_50_" gradientUnits="userSpaceOnUse" x1="2375.2549" y1="2268.697" x2="3155.552" y2="2268.697">
					<stop  offset="0" style="stop-color:#AA80F9"/>
					<stop  offset="0.9964" style="stop-color:#6165D7"/>
				</linearGradient>
				<path class="st51" d="M3155.55,2189.53l-0.68,220.96l-779.62,14.26l0.03-228.75c0.01-41.23,32.57-74.77,73.4-80.29
					c3.66-0.51,8.36-0.08,12.16-0.1l618.59-2.96C3122.9,2112.44,3155.69,2146.12,3155.55,2189.53z"/>
				<linearGradient id="SVGID_51_" gradientUnits="userSpaceOnUse" x1="2375.2515" y1="2395.2463" x2="3155.0811" y2="2395.2463">
					<stop  offset="0" style="stop-color:#AA80F9"/>
					<stop  offset="0.9964" style="stop-color:#6165D7"/>
				</linearGradient>
				<path class="st52" d="M3155.08,2342.58l-0.28,91.81c-78.34,23.55-220.95,41.03-382.14,44.41
					c-70.38,1.48-137.95,0.14-198.62-3.55c-80.22-4.89-147.46-13.88-198.79-25.76l0.01-95.05c19.28-4.69,37.04-9.06,58.14-13.14
					c46.04-8.89,101.75-16.23,162.99-21.45c55.03-4.7,115.11-7.68,177.45-8.52c80.8-1.1,156.4,1.51,221.84,7.01
					c5.11,0.42,10.21,0.87,15.18,1.33c15.74,1.46,30.87,3.09,45.28,4.89c5.1,0.63,10.13,1.28,15.06,1.96
					c11.33,1.55,21.08,3.21,31.41,4.96C3122.46,2334.85,3140.08,2338.56,3155.08,2342.58z"/>
			</g>
			<path class="st0" d="M3115.94,2363.35c-0.04,13.11-10.69,23.92-23.8,24.15l-640.36,11.01c-13.9,0.24-25.18-10.53-25.17-24.04
				l0.05-153.22c0-13.54,11.3-24.6,25.21-24.72l640.83-5.34c13.12-0.11,23.72,10.45,23.68,23.57L3115.94,2363.35z"/>
			<path class="st1" d="M3100.88,2360.28c-0.02,8.29-6.76,15.12-15.05,15.25l-636.93,10.61c-8.78,0.15-15.9-6.66-15.9-15.19
				l0.05-152.56c0-8.55,7.13-15.54,15.92-15.61l637.36-5.49c8.29-0.07,15,6.6,14.97,14.89L3100.88,2360.28z"/>
			<g>
				<g>
					<g>
						<path class="st8" d="M3010.28,2271.69c-0.01,4.09-3.35,6.75-7.45,6.78l-0.34,0c-4.11,0.03-7.43-2.51-7.42-6.6l0.08-30.41
							c0.01-4.1,3.35-7.17,7.46-7.21l0.34,0c4.11-0.05,7.43,2.96,7.42,7.06L3010.28,2271.69z"/>
						<path class="st8" d="M3070.93,2271.09c-0.01,4.08-3.33,6.85-7.41,6.89l-0.34,0c-4.09,0.03-7.39-2.62-7.38-6.71l0.08-30.41
							c0.01-4.08,3.33-7.24,7.42-7.28l0.34,0c4.08-0.05,7.39,3.04,7.37,7.13L3070.93,2271.09z"/>
					</g>
					<g>
						<path class="st8" d="M3010.11,2339.77c-0.01,4.09-3.35,8.18-7.45,8.19l-0.34,0c-4.11,0.01-7.43-3.88-7.42-7.97l0.08-31.28
							c0.01-4.09,3.35-8.1,7.46-8.13l0.34,0c4.11-0.03,7.42,3.83,7.41,7.92L3010.11,2339.77z"/>
						<path class="st8" d="M3070.75,2339.22c-0.01,4.08-3.33,5.34-7.41,8.53l-0.34,0c-4.08,0.01-7.39-4.23-7.38-8.31l0.08-32.77
							c0.01-4.08,3.33-9.64,7.42-9.67l0.34,0c4.08-0.03,7.38,5.39,7.37,9.47L3070.75,2339.22z"/>
					</g>
				</g>
				<g>
					<path class="st0" d="M3055.96,2286.94c0,4.08-3.44,7.46-7.53,7.51l-29.16,0.41c-4.1,0.05-5.89-3.21-5.89-7.3v-0.34
						c0-4.09,1.77-7.45,5.87-7.5l30.01-0.4c4.09-0.05,6.69,3.19,6.69,7.28V2286.94z"/>
					<g>
						<path class="st8" d="M3055.96,2223.4c0,4.08-3.35,7.45-7.44,7.49l-29.21,0.32c-4.1,0.04-5.93-3.24-5.93-7.33v-0.34
							c0-4.09,1.85-7.44,5.96-7.48l29.97-0.31c4.09-0.04,6.65,3.22,6.65,7.31V2223.4z"/>
						<path class="st8" d="M3055.96,2353.48c0,4.08-3.53,7.47-7.61,7.53l-30.75,0.48c-4.1,0.07-7.48-3.2-7.48-7.29v-0.34
							c0-4.09,3.32-7.43,7.42-7.5l30.86-0.48c4.09-0.06,7.56,3.18,7.56,7.26V2353.48z"/>
					</g>
				</g>
			</g>
			<path class="st53" d="M2820.55,3109.67c-2.54,14.34-6.74,28.76-13.03,42.28c-2.23,4.8-4.76,9.8-7.54,14.89l-339.62,17.56
				c-45.91,2.37-85.21-32.49-85.2-77.1l0.12-911.3c0.01-41.23,32.57-75.47,73.41-80.98c0.99,0.29,2.47,0.61,3.48,0.92
				c43.15,13.53,90.38,38.84,118.68,86.25c17.72,29.65,28.27,68.01,25.91,117.67c-0.6,12.84-2.01,26.45-4.43,40.86
				c-1.41,8.38-2.81,16.93-4.25,25.65c-1.79,10.89-3.55,22.02-5.26,33.35c-2.73,18.13-5.24,36.72-7.25,55.51
				c-1.93,18.01-3.39,36.22-4.13,54.38c-0.13,3.51-0.25,7.03-0.33,10.53c-0.28,11.36-0.25,22.67,0.15,33.9
				c0.27,7.69,0.72,15.32,1.35,22.9c3.6,42.63,13.33,83.38,32.85,119.09c14.78,27.02,37.06,47.96,60.5,67.44
				c6.19,5.14,12.46,10.18,18.69,15.2c21.41,17.25,41.85,35.14,60.07,55.1c0.45,0.49,0.9,0.99,1.34,1.48
				c8.83,9.79,17.12,20.08,24.73,31.05c8.47,12.19,15.57,25.03,21.52,38.39c2.3,5.13,4.42,10.36,6.38,15.64
				c3.39,9.07,6.31,18.37,8.85,27.85c1.14,4.25,2.26,8.57,3.33,12.93c0.05,0.16,0.1,0.34,0.13,0.51
				c4.31,17.32,8.02,35.4,10.31,53.73C2824.41,3060.09,2824.86,3085.3,2820.55,3109.67z"/>
			<g>
				<g>
					<g>
						<linearGradient id="SVGID_52_" gradientUnits="userSpaceOnUse" x1="3148.6069" y1="2203.8171" x2="1952.955" y2="2868.9478">
							<stop  offset="0" style="stop-color:#444B8C"/>
							<stop  offset="0.9964" style="stop-color:#3E4177"/>
						</linearGradient>
						<path class="st54" d="M2572.76,2583.75c-0.01,9.04-7.52,16.57-16.79,16.81l-112.47,2.94c-9.37,0.25-16.96-6.93-16.96-16.03
							l0.01-41.55c0-9.1,7.61-16.66,16.98-16.87l112.5-2.58c9.27-0.21,16.77,6.95,16.77,15.99L2572.76,2583.75z"/>
						<linearGradient id="SVGID_53_" gradientUnits="userSpaceOnUse" x1="3185.1299" y1="2282.4226" x2="2006.9332" y2="2937.843">
							<stop  offset="0" style="stop-color:#444B8C"/>
							<stop  offset="0.9964" style="stop-color:#3E4177"/>
						</linearGradient>
						<path class="st55" d="M2757.59,2579.04c-0.01,8.97-7.41,16.43-16.53,16.67l-110.64,2.9c-9.21,0.24-16.68-6.88-16.67-15.9
							l0.04-41.21c0.01-9.03,7.49-16.52,16.71-16.73l110.67-2.54c9.12-0.21,16.5,6.89,16.48,15.86L2757.59,2579.04z"/>
						<linearGradient id="SVGID_54_" gradientUnits="userSpaceOnUse" x1="3216.9285" y1="2358.7781" x2="2055.2046" y2="3005.0347">
							<stop  offset="0" style="stop-color:#444B8C"/>
							<stop  offset="0.9964" style="stop-color:#3E4177"/>
						</linearGradient>
						<path class="st56" d="M2933.31,2574.57c-0.02,8.9-7.31,16.3-16.28,16.53l-108.91,2.85c-9.07,0.24-16.42-6.83-16.4-15.78
							l0.07-40.89c0.02-8.96,7.39-16.39,16.46-16.59l108.94-2.5c8.98-0.21,16.23,6.84,16.21,15.74L2933.31,2574.57z"/>
						<linearGradient id="SVGID_55_" gradientUnits="userSpaceOnUse" x1="3255.915" y1="2432.894" x2="2110.8513" y2="3069.8831">
							<stop  offset="0" style="stop-color:#444B8C"/>
							<stop  offset="0.9964" style="stop-color:#3E4177"/>
						</linearGradient>
						<path class="st57" d="M3112.33,2570.01c-0.03,8.83-7.2,16.17-16.03,16.4l-107.17,2.81c-8.92,0.23-16.15-6.78-16.13-15.66
							l0.1-40.56c0.02-8.88,7.28-16.25,16.21-16.46l107.2-2.46c8.83-0.2,15.97,6.79,15.94,15.62L3112.33,2570.01z"/>
					</g>
					<g>
						<linearGradient id="SVGID_56_" gradientUnits="userSpaceOnUse" x1="3207.1572" y1="2304.2034" x2="2009.0656" y2="2970.6912">
							<stop  offset="0" style="stop-color:#444B8C"/>
							<stop  offset="0.9964" style="stop-color:#3E4177"/>
						</linearGradient>
						<path class="st58" d="M2572.64,2716.3c-0.01,9.03-7.52,16.59-16.78,16.89l-112.42,3.6c-9.36,0.3-16.96-6.82-16.95-15.91
							l0.01-41.51c0-9.09,7.6-16.68,16.97-16.95l112.45-3.23c9.27-0.27,16.77,6.84,16.76,15.88L2572.64,2716.3z"/>
						<linearGradient id="SVGID_57_" gradientUnits="userSpaceOnUse" x1="3242.446" y1="2382.3589" x2="2061.8435" y2="3039.1179">
							<stop  offset="0" style="stop-color:#444B8C"/>
							<stop  offset="0.9964" style="stop-color:#3E4177"/>
						</linearGradient>
						<path class="st59" d="M2757.38,2710.52c-0.01,8.96-7.41,16.46-16.52,16.75l-110.59,3.54c-9.21,0.29-16.67-6.77-16.66-15.79
							l0.04-41.17c0.01-9.02,7.49-16.55,16.7-16.81l110.62-3.18c9.12-0.26,16.49,6.79,16.47,15.75L2757.38,2710.52z"/>
						<linearGradient id="SVGID_58_" gradientUnits="userSpaceOnUse" x1="3273.0732" y1="2458.2866" x2="2108.9756" y2="3105.864">
							<stop  offset="0" style="stop-color:#444B8C"/>
							<stop  offset="0.9964" style="stop-color:#3E4177"/>
						</linearGradient>
						<path class="st60" d="M2933.02,2705.02c-0.02,8.89-7.3,16.33-16.27,16.61l-108.86,3.49c-9.07,0.29-16.41-6.72-16.39-15.67
							l0.07-40.85c0.02-8.95,7.38-16.41,16.45-16.67l108.89-3.13c8.97-0.26,16.23,6.74,16.21,15.63L2933.02,2705.02z"/>
						<linearGradient id="SVGID_59_" gradientUnits="userSpaceOnUse" x1="3310.8884" y1="2531.9558" x2="2163.4832" y2="3170.2471">
							<stop  offset="0" style="stop-color:#444B8C"/>
							<stop  offset="0.9964" style="stop-color:#3E4177"/>
						</linearGradient>
						<path class="st61" d="M3111.95,2699.42c-0.03,8.82-7.2,16.19-16.03,16.48l-107.12,3.43c-8.92,0.29-16.14-6.68-16.12-15.55
							l0.1-40.52c0.02-8.88,7.28-16.28,16.2-16.54l107.14-3.08c8.83-0.25,15.96,6.69,15.94,15.51L3111.95,2699.42z"/>
					</g>
					<g>
						<linearGradient id="SVGID_60_" gradientUnits="userSpaceOnUse" x1="3265.9019" y1="2401.2603" x2="2065.4326" y2="3069.0708">
							<stop  offset="0" style="stop-color:#444B8C"/>
							<stop  offset="0.9964" style="stop-color:#3E4177"/>
						</linearGradient>
						<path class="st62" d="M2572.53,2845.65c-0.01,9.02-7.51,16.62-16.77,16.97l-112.36,4.24c-9.36,0.35-16.95-6.72-16.95-15.8
							l0.01-41.47c0-9.08,7.6-16.71,16.96-17.03l112.39-3.87c9.26-0.32,16.76,6.74,16.75,15.77L2572.53,2845.65z"/>
						<linearGradient id="SVGID_61_" gradientUnits="userSpaceOnUse" x1="3299.9666" y1="2478.9895" x2="2117.0183" y2="3137.0532">
							<stop  offset="0" style="stop-color:#444B8C"/>
							<stop  offset="0.9964" style="stop-color:#3E4177"/>
						</linearGradient>
						<path class="st63" d="M2757.18,2838.81c-0.01,8.95-7.4,16.48-16.51,16.83l-110.53,4.17c-9.21,0.35-16.67-6.67-16.66-15.68
							l0.04-41.13c0.01-9.01,7.49-16.57,16.7-16.89l110.56-3.81c9.11-0.31,16.48,6.69,16.47,15.64L2757.18,2838.81z"/>
						<linearGradient id="SVGID_62_" gradientUnits="userSpaceOnUse" x1="3329.4275" y1="2554.5137" x2="2163.0159" y2="3203.3782">
							<stop  offset="0" style="stop-color:#444B8C"/>
							<stop  offset="0.9964" style="stop-color:#3E4177"/>
						</linearGradient>
						<path class="st64" d="M2932.73,2832.32c-0.02,8.88-7.3,16.35-16.27,16.69l-108.81,4.1c-9.06,0.34-16.4-6.62-16.39-15.56
							l0.07-40.81c0.02-8.94,7.38-16.44,16.44-16.75l108.84-3.75c8.97-0.31,16.22,6.64,16.2,15.53L2932.73,2832.32z"/>
						<linearGradient id="SVGID_63_" gradientUnits="userSpaceOnUse" x1="3366.0762" y1="2627.7605" x2="2216.3884" y2="3267.3215">
							<stop  offset="0" style="stop-color:#444B8C"/>
							<stop  offset="0.9964" style="stop-color:#3E4177"/>
						</linearGradient>
						<path class="st65" d="M3111.58,2825.7c-0.03,8.81-7.19,16.22-16.02,16.55l-107.07,4.04c-8.92,0.34-16.13-6.58-16.11-15.44
							l0.1-40.48c0.02-8.87,7.27-16.31,16.19-16.61l107.09-3.69c8.83-0.3,15.95,6.59,15.93,15.41L3111.58,2825.7z"/>
					</g>
					<linearGradient id="SVGID_64_" gradientUnits="userSpaceOnUse" x1="3324.8342" y1="2495.0015" x2="2122.0481" y2="3164.1008">
						<stop  offset="0" style="stop-color:#444B8C"/>
						<stop  offset="0.9964" style="stop-color:#3E4177"/>
					</linearGradient>
					<path class="st66" d="M2572.42,2971.79c-0.01,9.01-7.51,16.65-16.77,17.05l-112.31,4.86c-9.35,0.4-16.94-6.62-16.94-15.69
						l0.01-41.43c0-9.08,7.6-16.74,16.95-17.11l112.34-4.5c9.26-0.37,16.75,6.64,16.74,15.66L2572.42,2971.79z"/>
					<linearGradient id="SVGID_65_" gradientUnits="userSpaceOnUse" x1="3357.6799" y1="2572.3296" x2="2172.4465" y2="3231.6646">
						<stop  offset="0" style="stop-color:#444B8C"/>
						<stop  offset="0.9964" style="stop-color:#3E4177"/>
					</linearGradient>
					<path class="st67" d="M2756.98,2963.93c-0.01,8.94-7.4,16.51-16.5,16.9l-110.48,4.78c-9.2,0.4-16.66-6.57-16.65-15.57
						l0.04-41.09c0.01-9,7.48-16.6,16.69-16.97l110.51-4.42c9.11-0.36,16.47,6.59,16.46,15.54L2756.98,2963.93z"/>
					<linearGradient id="SVGID_66_" gradientUnits="userSpaceOnUse" x1="3385.9844" y1="2647.4719" x2="2217.3176" y2="3297.5908">
						<stop  offset="0" style="stop-color:#444B8C"/>
						<stop  offset="0.9964" style="stop-color:#3E4177"/>
					</linearGradient>
					<path class="st68" d="M2932.45,2956.46c-0.02,8.87-7.3,16.38-16.26,16.77l-108.76,4.71c-9.06,0.39-16.39-6.53-16.38-15.45
						l0.07-40.77c0.02-8.93,7.38-16.47,16.44-16.83l108.79-4.36c8.97-0.36,16.21,6.55,16.19,15.42L2932.45,2956.46z"/>
					<linearGradient id="SVGID_67_" gradientUnits="userSpaceOnUse" x1="3384.105" y1="2597.6775" x2="2178.8369" y2="3268.1575">
						<stop  offset="0" style="stop-color:#444B8C"/>
						<stop  offset="0.9964" style="stop-color:#3E4177"/>
					</linearGradient>
					<path class="st69" d="M2572.3,3107.03c-0.01,9-7.51,16.67-16.76,17.13l-112.25,5.53c-9.35,0.46-16.93-6.51-16.93-15.57
						l0.01-41.39c0-9.07,7.59-16.77,16.94-17.2l112.28-5.17c9.25-0.43,16.74,6.53,16.73,15.54L2572.3,3107.03z"/>
					<linearGradient id="SVGID_68_" gradientUnits="userSpaceOnUse" x1="3415.6995" y1="2674.5459" x2="2228.0193" y2="3335.2419">
						<stop  offset="0" style="stop-color:#444B8C"/>
						<stop  offset="0.9964" style="stop-color:#3E4177"/>
					</linearGradient>
					<path class="st70" d="M2756.77,3098.07c-0.01,8.93-7.4,16.54-16.5,16.98l-110.43,5.44c-9.2,0.45-16.65-6.47-16.64-15.45
						l0.04-41.05c0.01-8.99,7.48-16.63,16.68-17.05l110.46-5.08c9.1-0.42,16.46,6.49,16.45,15.42L2756.77,3098.07z"/>
					<linearGradient id="SVGID_69_" gradientUnits="userSpaceOnUse" x1="3442.8169" y1="2749.2505" x2="2271.7356" y2="3400.7126">
						<stop  offset="0" style="stop-color:#444B8C"/>
						<stop  offset="0.9964" style="stop-color:#3E4177"/>
					</linearGradient>
					<path class="st71" d="M2932.15,3089.56c-0.02,8.86-7.29,16.4-16.25,16.85l-108.71,5.35c-9.05,0.45-16.38-6.42-16.37-15.34
						l0.07-40.73c0.02-8.92,7.37-16.49,16.43-16.91l108.73-5c8.96-0.41,16.2,6.44,16.18,15.31L2932.15,3089.56z"/>
					<linearGradient id="SVGID_70_" gradientUnits="userSpaceOnUse" x1="3449.1475" y1="2770.7078" x2="2294.9973" y2="3412.7512">
						<stop  offset="0" style="stop-color:#444B8C"/>
						<stop  offset="0.9964" style="stop-color:#3E4177"/>
					</linearGradient>
					<path class="st72" d="M3094.88,2893.38l-107.05,4.29c-8.91,0.36-15.62,10.25-15.64,19.1l-0.05,22.78l-0.05,19.02l-0.21,85.88
						l-0.06,25.26l-0.04,16.5c-0.02,8.85,6.64,17.11,15.55,16.68l106.97-5.27c8.82-0.43,16.52-9.36,16.55-18.15l0.05-16.4l0.07-25.1
						l0.25-85.34l0.05-18.9l0.07-22.64C3111.36,2902.28,3103.7,2893.03,3094.88,2893.38z"/>
				</g>
				<g>
					<g>
						<linearGradient id="SVGID_71_" gradientUnits="userSpaceOnUse" x1="2509.5083" y1="2484.9414" x2="2489.7166" y2="2936.187">
							<stop  offset="0" style="stop-color:#444B8C"/>
							<stop  offset="0.9964" style="stop-color:#26264F"/>
						</linearGradient>
						<path class="st73" d="M2579.07,2583.59c-0.01,9.04-7.52,16.56-16.78,16.8l-112.41,2.94c-9.36,0.25-16.96-6.93-16.95-16.03
							l0.01-41.54c0-9.1,7.6-16.65,16.97-16.87l112.44-2.58c9.27-0.21,16.76,6.95,16.76,15.99L2579.07,2583.59z"/>
						<linearGradient id="SVGID_72_" gradientUnits="userSpaceOnUse" x1="2689.1538" y1="2481.2175" x2="2669.5325" y2="2928.5781">
							<stop  offset="0" style="stop-color:#444B8C"/>
							<stop  offset="0.9964" style="stop-color:#26264F"/>
						</linearGradient>
						<path class="st74" d="M2757.59,2579.04c-0.01,8.97-7.41,16.43-16.53,16.67l-110.64,2.9c-9.21,0.24-16.68-6.88-16.67-15.9
							l0.04-41.21c0.01-9.03,7.49-16.52,16.71-16.73l110.67-2.54c9.12-0.21,16.5,6.89,16.48,15.86L2757.59,2579.04z"/>
						<linearGradient id="SVGID_73_" gradientUnits="userSpaceOnUse" x1="2872.1372" y1="2477.4236" x2="2852.6892" y2="2920.832">
							<stop  offset="0" style="stop-color:#444B8C"/>
							<stop  offset="0.9964" style="stop-color:#26264F"/>
						</linearGradient>
						<path class="st75" d="M2939.42,2574.41c-0.02,8.89-7.3,16.3-16.27,16.53l-108.85,2.85c-9.07,0.24-16.41-6.83-16.39-15.78
							l0.07-40.88c0.02-8.95,7.38-16.38,16.45-16.59l108.88-2.49c8.97-0.21,16.23,6.84,16.2,15.74L2939.42,2574.41z"/>
						<linearGradient id="SVGID_74_" gradientUnits="userSpaceOnUse" x1="3052.1755" y1="2473.6897" x2="3032.8979" y2="2913.2148">
							<stop  offset="0" style="stop-color:#444B8C"/>
							<stop  offset="0.9964" style="stop-color:#26264F"/>
						</linearGradient>
						<path class="st76" d="M3118.34,2569.86c-0.03,8.82-7.2,16.16-16.02,16.39l-107.11,2.8c-8.92,0.23-16.14-6.77-16.12-15.65
							l0.1-40.55c0.02-8.88,7.28-16.25,16.2-16.45l107.14-2.46c8.83-0.2,15.96,6.79,15.93,15.62L3118.34,2569.86z"/>
					</g>
					<g>
						<linearGradient id="SVGID_75_" gradientUnits="userSpaceOnUse" x1="2509.4504" y1="2617.3274" x2="2489.5154" y2="3071.8374">
							<stop  offset="0" style="stop-color:#444B8C"/>
							<stop  offset="0.9964" style="stop-color:#26264F"/>
						</linearGradient>
						<path class="st77" d="M2578.96,2716.1c-0.01,9.03-7.51,16.59-16.77,16.88l-112.35,3.6c-9.36,0.3-16.95-6.82-16.94-15.91
							l0.01-41.5c0-9.09,7.6-16.68,16.96-16.95l112.38-3.23c9.26-0.27,16.76,6.84,16.75,15.87L2578.96,2716.1z"/>
						<linearGradient id="SVGID_76_" gradientUnits="userSpaceOnUse" x1="2689.0068" y1="2612.5649" x2="2669.2444" y2="3063.1377">
							<stop  offset="0" style="stop-color:#444B8C"/>
							<stop  offset="0.9964" style="stop-color:#26264F"/>
						</linearGradient>
						<path class="st78" d="M2757.38,2710.52c-0.01,8.96-7.41,16.46-16.52,16.75l-110.59,3.54c-9.21,0.29-16.67-6.77-16.66-15.79
							l0.04-41.17c0.01-9.02,7.49-16.55,16.7-16.81l110.62-3.18c9.12-0.26,16.49,6.79,16.47,15.75L2757.38,2710.52z"/>
						<linearGradient id="SVGID_77_" gradientUnits="userSpaceOnUse" x1="2871.9006" y1="2607.7129" x2="2852.314" y2="3054.2813">
							<stop  offset="0" style="stop-color:#444B8C"/>
							<stop  offset="0.9964" style="stop-color:#26264F"/>
						</linearGradient>
						<path class="st79" d="M2939.13,2704.83c-0.02,8.89-7.3,16.32-16.27,16.61l-108.8,3.48c-9.06,0.29-16.4-6.72-16.38-15.67
							l0.07-40.84c0.02-8.95,7.38-16.41,16.44-16.67l108.83-3.13c8.97-0.26,16.22,6.74,16.2,15.63L2939.13,2704.83z"/>
						<linearGradient id="SVGID_78_" gradientUnits="userSpaceOnUse" x1="3051.8525" y1="2602.9377" x2="3032.4385" y2="3045.5718">
							<stop  offset="0" style="stop-color:#444B8C"/>
							<stop  offset="0.9964" style="stop-color:#26264F"/>
						</linearGradient>
						<path class="st80" d="M3117.96,2699.23c-0.03,8.81-7.19,16.19-16.02,16.47l-107.06,3.43c-8.92,0.29-16.13-6.67-16.11-15.54
							l0.1-40.51c0.02-8.87,7.27-16.28,16.19-16.53l107.09-3.08c8.82-0.25,15.95,6.69,15.93,15.51L3117.96,2699.23z"/>
					</g>
					<g>
						<linearGradient id="SVGID_79_" gradientUnits="userSpaceOnUse" x1="2509.3938" y1="2746.5061" x2="2489.3191" y2="3204.2036">
							<stop  offset="0" style="stop-color:#444B8C"/>
							<stop  offset="0.9964" style="stop-color:#26264F"/>
						</linearGradient>
						<path class="st81" d="M2578.84,2845.41c-0.01,9.02-7.51,16.61-16.76,16.96l-112.3,4.24c-9.35,0.35-16.94-6.72-16.94-15.8
							l0.01-41.46c0-9.08,7.6-16.71,16.95-17.03l112.33-3.87c9.26-0.32,16.75,6.74,16.74,15.76L2578.84,2845.41z"/>
						<linearGradient id="SVGID_80_" gradientUnits="userSpaceOnUse" x1="2688.8633" y1="2740.7312" x2="2668.9634" y2="3194.4412">
							<stop  offset="0" style="stop-color:#444B8C"/>
							<stop  offset="0.9964" style="stop-color:#26264F"/>
						</linearGradient>
						<path class="st82" d="M2757.18,2838.81c-0.01,8.95-7.4,16.48-16.51,16.83l-110.53,4.17c-9.21,0.35-16.67-6.67-16.66-15.68
							l0.04-41.13c0.01-9.01,7.49-16.57,16.7-16.89l110.56-3.81c9.11-0.31,16.48,6.69,16.47,15.64L2757.18,2838.81z"/>
						<linearGradient id="SVGID_81_" gradientUnits="userSpaceOnUse" x1="2871.6699" y1="2734.8474" x2="2851.9478" y2="3184.5022">
							<stop  offset="0" style="stop-color:#444B8C"/>
							<stop  offset="0.9964" style="stop-color:#26264F"/>
						</linearGradient>
						<path class="st83" d="M2938.84,2832.09c-0.02,8.88-7.3,16.35-16.26,16.69l-108.75,4.1c-9.06,0.34-16.39-6.62-16.38-15.56
							l0.07-40.8c0.02-8.94,7.38-16.44,16.44-16.75l108.78-3.75c8.96-0.31,16.21,6.64,16.19,15.52L2938.84,2832.09z"/>
						<linearGradient id="SVGID_82_" gradientUnits="userSpaceOnUse" x1="3051.5374" y1="2729.0576" x2="3031.99" y2="3174.7278">
							<stop  offset="0" style="stop-color:#444B8C"/>
							<stop  offset="0.9964" style="stop-color:#26264F"/>
						</linearGradient>
						<path class="st84" d="M3117.59,2825.47c-0.03,8.81-7.19,16.21-16.01,16.55l-107.01,4.04c-8.91,0.34-16.12-6.57-16.1-15.44
							l0.1-40.47c0.02-8.87,7.27-16.3,16.18-16.61l107.04-3.69c8.82-0.3,15.95,6.59,15.92,15.4L3117.59,2825.47z"/>
					</g>
					<linearGradient id="SVGID_83_" gradientUnits="userSpaceOnUse" x1="2509.3389" y1="2872.4866" x2="2489.1274" y2="3333.2959">
						<stop  offset="0" style="stop-color:#444B8C"/>
						<stop  offset="0.9964" style="stop-color:#26264F"/>
					</linearGradient>
					<path class="st85" d="M2578.72,2971.52c-0.01,9.01-7.51,16.64-16.76,17.04l-112.25,4.86c-9.35,0.4-16.93-6.62-16.93-15.69
						l0.01-41.42c0-9.07,7.59-16.73,16.94-17.11l112.28-4.5c9.25-0.37,16.74,6.64,16.73,15.65L2578.72,2971.52z"/>
					<linearGradient id="SVGID_84_" gradientUnits="userSpaceOnUse" x1="2688.7231" y1="2865.7251" x2="2668.689" y2="3322.4978">
						<stop  offset="0" style="stop-color:#444B8C"/>
						<stop  offset="0.9964" style="stop-color:#26264F"/>
					</linearGradient>
					<path class="st86" d="M2756.98,2963.93c-0.01,8.94-7.4,16.51-16.5,16.9l-110.48,4.78c-9.2,0.4-16.66-6.57-16.65-15.57
						l0.04-41.09c0.01-9,7.48-16.6,16.69-16.97l110.51-4.42c9.11-0.36,16.47,6.59,16.46,15.54L2756.98,2963.93z"/>
					<linearGradient id="SVGID_85_" gradientUnits="userSpaceOnUse" x1="2871.4448" y1="2858.8364" x2="2851.5906" y2="3311.5034">
						<stop  offset="0" style="stop-color:#444B8C"/>
						<stop  offset="0.9964" style="stop-color:#26264F"/>
					</linearGradient>
					<path class="st87" d="M2938.56,2956.2c-0.02,8.87-7.29,16.37-16.25,16.76l-108.7,4.71c-9.05,0.39-16.38-6.52-16.37-15.45
						l0.07-40.76c0.02-8.93,7.37-16.46,16.43-16.82l108.73-4.35c8.96-0.36,16.2,6.54,16.18,15.42L2938.56,2956.2z"/>
					<linearGradient id="SVGID_86_" gradientUnits="userSpaceOnUse" x1="2509.2798" y1="3007.5508" x2="2488.9221" y2="3471.6987">
						<stop  offset="0" style="stop-color:#444B8C"/>
						<stop  offset="0.9964" style="stop-color:#26264F"/>
					</linearGradient>
					<path class="st88" d="M2578.6,3106.72c-0.01,9-7.5,16.67-16.75,17.12l-112.19,5.53c-9.34,0.46-16.92-6.51-16.92-15.57
						l0.01-41.38c0-9.06,7.59-16.76,16.93-17.19l112.22-5.16c9.25-0.43,16.73,6.53,16.72,15.54L2578.6,3106.72z"/>
					<linearGradient id="SVGID_87_" gradientUnits="userSpaceOnUse" x1="2688.5732" y1="2999.7324" x2="2668.3948" y2="3459.791">
						<stop  offset="0" style="stop-color:#444B8C"/>
						<stop  offset="0.9964" style="stop-color:#26264F"/>
					</linearGradient>
					<path class="st89" d="M2756.77,3098.07c-0.01,8.93-7.4,16.54-16.5,16.98l-110.43,5.44c-9.2,0.45-16.65-6.47-16.64-15.45
						l0.04-41.05c0.01-8.99,7.48-16.63,16.68-17.05l110.46-5.08c9.1-0.42,16.46,6.49,16.45,15.42L2756.77,3098.07z"/>
					<linearGradient id="SVGID_88_" gradientUnits="userSpaceOnUse" x1="2871.2034" y1="2991.7676" x2="2851.2075" y2="3447.6677">
						<stop  offset="0" style="stop-color:#444B8C"/>
						<stop  offset="0.9964" style="stop-color:#26264F"/>
					</linearGradient>
					<path class="st90" d="M2938.26,3089.27c-0.02,8.86-7.29,16.4-16.24,16.84l-108.65,5.35c-9.05,0.45-16.38-6.42-16.36-15.34
						l0.07-40.72c0.02-8.92,7.37-16.49,16.42-16.9l108.67-5c8.96-0.41,16.19,6.44,16.17,15.3L2938.26,3089.27z"/>
					<linearGradient id="SVGID_89_" gradientUnits="userSpaceOnUse" x1="3056.7087" y1="2789.1946" x2="3005.0081" y2="3967.9504">
						<stop  offset="0" style="stop-color:#444B8C"/>
						<stop  offset="0.9964" style="stop-color:#26264F"/>
					</linearGradient>
					<path class="st91" d="M3101.11,2893.13l-106.99,4.28c-8.91,0.36-15.83,10.25-15.85,19.11l-0.06,22.78l-0.05,19.02l-0.21,85.85
						l-0.06,25.25l-0.04,16.5c-0.02,8.84,6.85,17.1,15.76,16.66l106.91-5.27c8.81-0.43,16.3-9.34,16.32-18.13l0.05-16.39l0.07-25.1
						l0.25-85.32l0.06-18.9l0.07-22.63C3117.37,2902.04,3109.93,2892.78,3101.11,2893.13z"/>
				</g>
			</g>
		</g>
		<g>
			
				<linearGradient id="SVGID_90_" gradientUnits="userSpaceOnUse" x1="-1276.7595" y1="1359.1488" x2="-564.5053" y2="1842.9437" gradientTransform="matrix(1 0 0 1 3871.7146 0)">
				<stop  offset="0" style="stop-color:#311944"/>
				<stop  offset="1" style="stop-color:#6B3976"/>
			</linearGradient>
			<path class="st92" d="M2634.09,1616.49c-13.4-8.69-1.19-33.96-0.47-88.24c0.88-66.52-16.78-78.91-2.59-105.01
				c17.35-31.91,61.03-45.12,89.97-45.74c6.38-0.14,7.87-3.62,61.34,10.22c96.33,24.95,120.45-1.8,163.59,24.92
				c41.68,25.81,23.43,54.08,63.9,84.35c65.6,49.07,134.59-3.98,181.48,37.06c44.35,38.82,45.37,137.73-1.28,191.71
				c-52.88,61.19-148.24,42.81-212.15,30.67c-13.45-2.55-81.37-16.82-152.09-69.01c-39.12-28.88-65.98-59.71-83.07-82.43
				c-4.01-4.51-10.27-9.98-18.53-10.86c-9.92-1.06-17.89,5.01-21.73,7.67C2682.3,1615.75,2647.25,1625.02,2634.09,1616.49z"/>
			
				<linearGradient id="SVGID_91_" gradientUnits="userSpaceOnUse" x1="1767.7137" y1="3051.8022" x2="1515.175" y2="1341.9025" gradientTransform="matrix(-1 0 0 1 4102 0)">
				<stop  offset="3.597120e-03" style="stop-color:#E38DDD"/>
				<stop  offset="1" style="stop-color:#9571F6"/>
			</linearGradient>
			<path class="st93" d="M2687.92,1580.03c-17.23-15.7-78.71,14.56-119.45,54.71c-47.87,47.17-44.19,85.41-85.96,144.01
				c-20.77,29.13-56.37,68.35-119.45,102.71c4.47,11.16,8.93,22.33,13.4,33.49c30.5,1.83,90.38,0.76,146.25-35.72
				c38.81-25.34,58.77-58.92,97.13-125.04C2658.31,1687.83,2709.46,1599.65,2687.92,1580.03z"/>
			
				<linearGradient id="SVGID_92_" gradientUnits="userSpaceOnUse" x1="-1591.7565" y1="2477.2273" x2="-1495.8328" y2="2477.2273" gradientTransform="matrix(1 0 0 1 3871.7146 0)">
				<stop  offset="0" style="stop-color:#311944"/>
				<stop  offset="1" style="stop-color:#6B3976"/>
			</linearGradient>
			<path class="st94" d="M2299.62,2477.2l47.99-28.84h21.66c0,0,7.38,27.47,6.54,28.84c-9.65,15.81-54.58,27.84-82.62,28.84
				c-4.66,0.16-11.15,0.19-12.83-3.18C2277.52,2497.14,2290.22,2485.15,2299.62,2477.2z"/>
			
				<linearGradient id="SVGID_93_" gradientUnits="userSpaceOnUse" x1="-1546.5183" y1="2515.0303" x2="-1403.4084" y2="2085.6997" gradientTransform="matrix(1 0 0 1 3871.7146 0)">
				<stop  offset="0" style="stop-color:#FFC444"/>
				<stop  offset="0.9964" style="stop-color:#F36F56"/>
			</linearGradient>
			<path class="st95" d="M2348.46,2416.89c3.08,17.85-0.82,27.16-5.02,32.37c-2.96,3.67-5.59,4.71-23.16,19.9
				c-5.81,5.02-8.77,7.72-8.1,9.12c0.77,1.61,5.9,0.74,16.97-1.93c24.13-5.8,36.26-8.82,39.22-14.63c2.68-5.26,0.31-7.63,0.47-21.96
				c0.1-9.43,2.02-17.03,3.53-21.78C2364.4,2417.63,2356.43,2417.26,2348.46,2416.89z"/>
			
				<linearGradient id="SVGID_94_" gradientUnits="userSpaceOnUse" x1="-1576.4879" y1="2301.0984" x2="-1517.8239" y2="2301.0984" gradientTransform="matrix(1 0 0 1 3871.7146 0)">
				<stop  offset="0" style="stop-color:#311944"/>
				<stop  offset="1" style="stop-color:#6B3976"/>
			</linearGradient>
			<path class="st96" d="M2313.77,2275.4c0,0-21.68,25.87-18.15,54.24c3.53,28.36,41.5-13.1,46.8-27.12
				c5.3-14.01,11.48-33.98,11.48-33.98S2327.26,2251.97,2313.77,2275.4z"/>
			
				<linearGradient id="SVGID_95_" gradientUnits="userSpaceOnUse" x1="-1610.4878" y1="2462.1787" x2="-1514.6957" y2="2174.802" gradientTransform="matrix(1 0 0 1 3871.7146 0)">
				<stop  offset="0" style="stop-color:#FFC444"/>
				<stop  offset="0.9964" style="stop-color:#F36F56"/>
			</linearGradient>
			<path class="st97" d="M2322.04,2234.92c0,0,5.88,30.14-5.34,46.05c-5.59,7.92-13.13,14.64-10.91,21.09
				c1.49,4.32,7.13,7.43,11.9,6.94c9.15-0.94,14.22-14.96,17.79-24.85c5.28-14.61,8.23-45.87,8.23-45.87L2322.04,2234.92z"/>
			
				<linearGradient id="SVGID_96_" gradientUnits="userSpaceOnUse" x1="-1492.4542" y1="1978.0178" x2="-1421.0057" y2="2391.0801" gradientTransform="matrix(1 0 0 1 3871.7146 0)">
				<stop  offset="0" style="stop-color:#AB316D"/>
				<stop  offset="1" style="stop-color:#792D3D"/>
			</linearGradient>
			<path class="st98" d="M2339.32,2260.33c-6.67-2.43-13.34-4.86-20.01-7.29c-10.4-23.76-23.1-62.79-18.86-110.23
				c10.91-121.99,123.74-186.64,136.27-193.56c30.74,15.42,61.88,37.18,63.01,64.61c1.42,34.43-45.49,52.64-89.59,102.99
				C2383.68,2147.08,2355.39,2192.12,2339.32,2260.33z"/>
			
				<linearGradient id="SVGID_97_" gradientUnits="userSpaceOnUse" x1="-1391.552" y1="2467.5571" x2="-1289.9604" y2="2146.0369" gradientTransform="matrix(1 0 0 1 3871.7146 0)">
				<stop  offset="0" style="stop-color:#AB316D"/>
				<stop  offset="1" style="stop-color:#792D3D"/>
			</linearGradient>
			<path class="st99" d="M2346.51,2430.85c-22.03-86.07-16.4-156.3-10.05-196.76c9.61-61.15,29.15-185.55,112.2-231.93
				c18.14-10.13,44.06-19.2,75.66-47.36c26.39-23.52,43.16-48.25,53.28-65.67c111.07-32.58,213.52-19.38,258.72,40.19
				c5.22,6.88,18.3,21.81,20.83,43.83c5.71,49.67-43.1,109.47-97.86,121.96c-69.6,15.87-109.98-55.6-171.64-31.82
				c-17.25,6.65-31.87,23.13-61.12,56.1c-37.21,41.94-58.12,80.63-66.04,96.11c-23.56,46.11-41.43,80.14-44.04,124.25
				c-0.61,10.28-0.97,31.04-13.01,53.43c-9.24,17.19-21.76,28.65-31.08,35.73C2363.75,2429.55,2355.13,2430.2,2346.51,2430.85z"/>
			
				<linearGradient id="SVGID_98_" gradientUnits="userSpaceOnUse" x1="-1391.543" y1="2467.5605" x2="-1289.9514" y2="2146.0403" gradientTransform="matrix(1 0 0 1 3871.7146 0)">
				<stop  offset="0" style="stop-color:#AB316D"/>
				<stop  offset="1" style="stop-color:#792D3D"/>
			</linearGradient>
			<path class="st100" d="M2857.16,1973.14c-2.53-22.01-15.61-36.94-20.83-43.83c-45.21-59.57-147.65-72.77-258.72-40.19
				c-10.12,17.42-26.89,42.16-53.28,65.67c-31.6,28.16-57.53,37.23-75.66,47.36c-50.71,28.32-77.72,85.73-93.27,140.07
				c23.07-35.77,42.82-45.28,58.11-45.45c21.88-0.24,31.65,18.46,57.77,15.91c27.92-2.73,34.3-25.81,56.94-28.47
				c6.77-0.79,15.11,0.25,25.12,5.58c13.36-13.99,23.32-22.27,34.33-26.51c61.67-23.78,102.04,47.69,171.64,31.82
				C2814.06,2082.6,2862.87,2022.81,2857.16,1973.14z"/>
			
				<linearGradient id="SVGID_99_" gradientUnits="userSpaceOnUse" x1="-1248.5898" y1="1936.328" x2="-1177.3059" y2="2348.4385" gradientTransform="matrix(1 0 0 1 3871.7146 0)">
				<stop  offset="0" style="stop-color:#AB316D"/>
				<stop  offset="1" style="stop-color:#792D3D"/>
			</linearGradient>
			<path class="st101" d="M2404.06,2040.65c12.57-0.67,31.93-1.05,55.28,1.25c110.82,10.95,141.38,65.77,232.97,79.15
				c21.67,3.17,118.14,17.25,159.92-38.52c30-40.04,25.46-109.03-7.35-136.17c-13.89-11.48-27.63-11.17-116.57-10.36
				c-33.49,0.3-66.98,0.41-100.48,0.84c-141.77,1.81-168.88-8.01-194.68,15.44C2421.13,1963.22,2403.54,1986.71,2404.06,2040.65z"/>
			<g>
				<g>
					
						<linearGradient id="SVGID_100_" gradientUnits="userSpaceOnUse" x1="1574.1508" y1="3080.3916" x2="1321.6119" y2="1370.4912" gradientTransform="matrix(-1 0 0 1 4102 0)">
						<stop  offset="3.597120e-03" style="stop-color:#E38DDD"/>
						<stop  offset="1" style="stop-color:#9571F6"/>
					</linearGradient>
					<path class="st102" d="M2541.57,1896.76c0,0,70.33,13.75,144.48,26.94c83.9,14.91,172.75,29.11,170.4,21.89
						c-24.03-73.7,0.11-122.14,17.4-176.61c10.35-32.41,18.24-67,12.1-110.32c-17.19-121.12-182.61-72.89-182.61-72.89
						c-53.63,2.17-59.49,7.82-64.4,13.26c-34.34,37.88-43.85,82.01-43.85,82.01c-8.52,39.53,1.12,54.72,0,88.18
						C2594.08,1799.7,2584.19,1843.59,2541.57,1896.76z"/>
				</g>
				
					<linearGradient id="SVGID_101_" gradientUnits="userSpaceOnUse" x1="1590.8744" y1="3077.9314" x2="1338.3336" y2="1368.0177" gradientTransform="matrix(-1 0 0 1 4102 0)">
					<stop  offset="3.597120e-03" style="stop-color:#E38DDD"/>
					<stop  offset="1" style="stop-color:#9571F6"/>
				</linearGradient>
				<path class="st103" d="M2809.61,1918.86c0,0-155.19-41.52-247.7-46.71L2809.61,1918.86z"/>
			</g>
			<g>
				
					<linearGradient id="SVGID_102_" gradientUnits="userSpaceOnUse" x1="3178.1753" y1="1366.3143" x2="3185.4548" y2="1172.4086" gradientTransform="matrix(-0.984 0.1784 0.1784 0.984 5620.1509 -244.2395)">
					<stop  offset="0" style="stop-color:#FFC444"/>
					<stop  offset="0.9964" style="stop-color:#F36F56"/>
				</linearGradient>
				<path class="st104" d="M2739.28,1513.2c-1.52,7.08-9.23,45.07,6.31,54.85c3.37,2.12,9.84,3.33,22.79,5.76
					c8.48,1.59,15.59,2.56,20.61,3.16c-0.72,6.37-2.87,16.74-10.22,26.17c-20.61,26.44-61.94,19.6-67.83,18.53
					c-20.79-3.78-41.24-10.21-46.18-14.13c-7.52-5.98-13.44-10.46-16.93-15.02c8.04-3.89,24.28-14.14,35.18-17.49
					c8.15-2.51,15.79-4.29,22.75-5.58c1.14-7.34,2.29-14.68,3.43-22.02C2719.22,1536.02,2729.25,1524.61,2739.28,1513.2z"/>
				
					<linearGradient id="SVGID_103_" gradientUnits="userSpaceOnUse" x1="3175.9036" y1="1195.1338" x2="3172.7876" y2="1446.1908" gradientTransform="matrix(-0.984 0.1784 0.1784 0.984 5620.1509 -244.2395)">
					<stop  offset="0" style="stop-color:#FFC444"/>
					<stop  offset="0.9964" style="stop-color:#F36F56"/>
				</linearGradient>
				<path class="st105" d="M2740,1532.14c0,0-2.81,27.84-29.87,32.75c-24.23,4.39-42.48-54.17-30.07-69.31
					c4.14-5.05,14.35-9.86,23.2-9.6c6.23,0.18,27.26,8.19,30.19,29.23c4.19-4.41,9.41-5.68,11.98-3.83
					c3.26,2.34,1.52,9.16,1.12,10.7C2745.18,1527.42,2741.69,1530.74,2740,1532.14z"/>
			</g>
			<g>
				
					<linearGradient id="SVGID_104_" gradientUnits="userSpaceOnUse" x1="139.3332" y1="1930.9447" x2="416.0818" y2="1930.9447" gradientTransform="matrix(1 0 0 1 2361.7212 0)">
					<stop  offset="0" style="stop-color:#40447E"/>
					<stop  offset="0.9964" style="stop-color:#3C3B6B"/>
				</linearGradient>
				<path class="st106" d="M2507.83,1910.38l253.2,12.32c3.49,0.17,6.66,2.04,8.51,5l7.01,11.25c3.49,5.6-0.7,12.82-7.29,12.57
					l-268.2-10.22L2507.83,1910.38z"/>
				
					<linearGradient id="SVGID_105_" gradientUnits="userSpaceOnUse" x1="-37.6476" y1="1756.3705" x2="143.7965" y2="1936.3629" gradientTransform="matrix(1 0 0 1 2361.7212 0)">
					<stop  offset="0" style="stop-color:#40447E"/>
					<stop  offset="0.9964" style="stop-color:#3C3B6B"/>
				</linearGradient>
				<path class="st107" d="M2244.49,1769.38l261.58,5.07c7.74,0.15,14.83,4.37,18.65,11.1l90.58,159.37l-276.26-11.01
					c-7.58-0.3-14.5-4.41-18.4-10.92l-83.92-140.21C2233.14,1776.81,2237.53,1769.24,2244.49,1769.38z"/>
				
					<linearGradient id="SVGID_106_" gradientUnits="userSpaceOnUse" x1="-37.6472" y1="1756.3705" x2="143.797" y2="1936.3632" gradientTransform="matrix(1 0 0 1 2361.7212 0)">
					<stop  offset="0" style="stop-color:#40447E"/>
					<stop  offset="0.9964" style="stop-color:#3C3B6B"/>
				</linearGradient>
				<path class="st108" d="M2524.72,1785.54c-3.83-6.73-10.91-10.95-18.65-11.1l-5.73-0.11c-0.85,8.44-3.45,16.17-8.61,22.4
					c-16.13,19.47-42.93,7.46-62.9,28.06c-21.94,22.63-1.67,49.58-21.29,70.64c-20.65,22.17-54.04,4.12-92.42,18.31l5.53,9.23
					c3.9,6.51,10.82,10.62,18.4,10.92l276.26,11.01L2524.72,1785.54z"/>
			</g>
			
				<linearGradient id="SVGID_107_" gradientUnits="userSpaceOnUse" x1="1338.1461" y1="1680.5597" x2="1295.8638" y2="2116.0698" gradientTransform="matrix(-1 0 0 1 4102 0)">
				<stop  offset="3.597120e-03" style="stop-color:#E38DDD"/>
				<stop  offset="1" style="stop-color:#9571F6"/>
			</linearGradient>
			<path class="st109" d="M2686.05,1923.7c83.9,14.91,172.75,29.11,170.4,21.89c-24.03-73.7,0.11-122.14,17.4-176.61l-4.53-28.06
				c0,0-31.22,13.43-38.83,45.6c-7.61,32.13,0.6,56.12-30.41,60.79c-19.71,2.98-61.63,23.22-90.01,47.91
				c-1.51,1.33-3.02,2.67-4.45,4.03C2697.2,1907.14,2690.29,1915.46,2686.05,1923.7z"/>
			<g>
				
					<linearGradient id="SVGID_108_" gradientUnits="userSpaceOnUse" x1="1416.3882" y1="3103.6936" x2="1163.8492" y2="1393.7921" gradientTransform="matrix(-1 0 0 1 4102 0)">
					<stop  offset="3.597120e-03" style="stop-color:#E38DDD"/>
					<stop  offset="1" style="stop-color:#9571F6"/>
				</linearGradient>
				<path class="st110" d="M2740.4,1901.92c-3.3-8.7-6.59-17.4-9.89-26.11c36.42-9.99,86.8-24.74,138.47-43.2
					c8.09-2.89,17.71-6.47,20.85-14.99c8.84-23.89-47.33-48.64-69.17-100.79c-20.19-48.24-9.08-115.18,14.36-123.09
					c48.77-16.46,221.71,198.81,159.94,289.56C2960.05,1934.59,2852.41,1942.76,2740.4,1901.92z"/>
			</g>
			
				<linearGradient id="SVGID_109_" gradientUnits="userSpaceOnUse" x1="1427.6326" y1="1876.3727" x2="1335.6355" y2="1963.0681" gradientTransform="matrix(-1 0 0 1 4102 0)">
				<stop  offset="0" style="stop-color:#FFC444"/>
				<stop  offset="0.9964" style="stop-color:#F36F56"/>
			</linearGradient>
			<path class="st111" d="M2730.51,1875.81c-22.87-12.15-50.24,0.3-52,1.14c-5.02,2.37-12.34,6.6-19.73,14.14
				c-0.83,1.14-10.75,14.88-7.14,19.29c2.9,3.53,14.11,0.6,27.59-7.78c5.65-0.79,14.06-1.52,24.14-0.59
				c18.51,1.71,26.98,7.55,33.7,2.51c4.92-3.69,6.6-11.51,4.83-17.31C2740.01,1880.96,2734.38,1877.86,2730.51,1875.81z"/>
		</g>
	</g>
</g>
</svg>
